<svg width="33" height="36" viewBox="0 0 33 36" fill="none" xmlns="http://www.w3.org/2000/svg">
<path d="M7.33344 16.2002H11.0001V19.8002H7.33344V16.2002ZM7.33344 23.4002H11.0001V27.0002H7.33344V23.4002ZM14.6668 16.2002H18.3334V19.8002H14.6668V16.2002ZM14.6668 23.4002H18.3334V27.0002H14.6668V23.4002ZM22.0001 16.2002H25.6668V19.8002H22.0001V16.2002ZM22.0001 23.4002H25.6668V27.0002H22.0001V23.4002Z" fill="#191E19"/>
<path d="M3.66667 36H29.3333C31.3555 36 33 34.3854 33 32.4V7.2C33 5.2146 31.3555 3.6 29.3333 3.6H25.6667V0H22V3.6H11V0H7.33333V3.6H3.66667C1.6445 3.6 0 5.2146 0 7.2V32.4C0 34.3854 1.6445 36 3.66667 36ZM29.3333 10.8L29.3352 32.4H3.66667V10.8H29.3333Z" fill="#191E19"/>
</svg>
