<svg width="23" height="23" viewBox="0 0 23 23" fill="none" xmlns="http://www.w3.org/2000/svg">
<path d="M11.5 0C5.14933 0 0 5.14933 0 11.5C0 17.8507 5.14933 23 11.5 23C17.8507 23 23 17.8507 23 11.5C23 5.14933 17.8507 0 11.5 0ZM16.4286 12.1161C16.4286 12.229 16.3362 12.3214 16.2232 12.3214H12.3214V16.2232C12.3214 16.3362 12.229 16.4286 12.1161 16.4286H10.8839C10.771 16.4286 10.6786 16.3362 10.6786 16.2232V12.3214H6.77679C6.66384 12.3214 6.57143 12.229 6.57143 12.1161V10.8839C6.57143 10.771 6.66384 10.6786 6.77679 10.6786H10.6786V6.77679C10.6786 6.66384 10.771 6.57143 10.8839 6.57143H12.1161C12.229 6.57143 12.3214 6.66384 12.3214 6.77679V10.6786H16.2232C16.3362 10.6786 16.4286 10.771 16.4286 10.8839V12.1161Z" fill="#18C6E0"/>
</svg>
