<svg width="19" height="14" viewBox="0 0 19 14" fill="none" xmlns="http://www.w3.org/2000/svg">
<path d="M18.5669 5.73569H0.773896V1.57608C0.778397 1.36944 0.861202 1.1722 1.00558 1.02421C1.14995 0.876215 1.34514 0.788489 1.55174 0.778743C1.75833 0.768998 1.96093 0.83796 2.11861 0.971706C2.2763 1.10545 2.3773 1.29401 2.40126 1.49931L1.77536 1.9656C1.71322 2.01289 1.66738 2.07837 1.64422 2.15291C1.62107 2.22746 1.62175 2.30736 1.64617 2.3815C1.67058 2.45564 1.71752 2.52034 1.78045 2.56657C1.84338 2.6128 1.91917 2.63827 1.99727 2.63943C2.0701 2.63331 2.13945 2.60559 2.19642 2.55983L4.24487 1.03871C4.32416 0.979283 4.37673 0.890944 4.39112 0.792947C4.40551 0.694951 4.38054 0.595244 4.32167 0.515559C4.29271 0.4757 4.25608 0.442027 4.21391 0.416523C4.17174 0.391018 4.12487 0.3742 4.0761 0.367048C4.02733 0.359896 3.97763 0.362553 3.92991 0.374874C3.88218 0.387195 3.8374 0.408932 3.79819 0.438796L3.02718 1.00744C2.89662 0.664698 2.64969 0.378715 2.32953 0.199482C2.00937 0.0202489 1.63636 -0.0408302 1.27571 0.0269181C0.91505 0.0946663 0.589697 0.286933 0.356514 0.57011C0.123331 0.853287 -0.00284099 1.20936 4.8551e-05 1.57608V8.60733C0.00155228 9.36772 0.304476 10.0965 0.842504 10.6342C1.38053 11.1719 2.10982 11.4746 2.8707 11.4761H3.04994L1.892 12.6333C1.85699 12.6682 1.82922 12.7096 1.81027 12.7552C1.79131 12.8008 1.78154 12.8497 1.78154 12.8991C1.78154 12.9485 1.79131 12.9975 1.81027 13.0431C1.82922 13.0887 1.85699 13.1301 1.892 13.165C1.96271 13.2341 2.05768 13.2728 2.15659 13.2728C2.2555 13.2728 2.35047 13.2341 2.42118 13.165L4.11114 11.4761H14.8569L16.5469 13.165C16.6174 13.2344 16.7125 13.2733 16.8115 13.273C16.8855 13.2726 16.9577 13.2504 17.0191 13.2092C17.0805 13.1679 17.1284 13.1094 17.1566 13.0411C17.1849 12.9728 17.1923 12.8976 17.178 12.825C17.1637 12.7525 17.1282 12.6858 17.0761 12.6333L15.9181 11.4761H16.0689C16.8303 11.4754 17.5603 11.173 18.099 10.6352C18.6376 10.0975 18.9409 9.36821 18.9424 8.60733V6.11099C18.9424 6.01145 18.9029 5.91599 18.8324 5.84561C18.762 5.77523 18.6665 5.73569 18.5669 5.73569ZM18.1942 8.60733C18.1927 9.16989 17.9682 9.70894 17.5699 10.1065C17.1716 10.504 16.6319 10.7276 16.0689 10.7284H2.88208C2.31941 10.7276 1.78 10.5039 1.38213 10.1063C0.984268 9.70869 0.760427 9.16963 0.759674 8.60733V6.48345H18.1942V8.60733Z" fill="#C2874A"/>
<path d="M2.51217 3.59465C2.57695 3.65752 2.6637 3.69269 2.75401 3.69269C2.84431 3.69269 2.93105 3.65752 2.99583 3.59465C3.02766 3.56295 3.05292 3.52528 3.07015 3.4838C3.08738 3.44233 3.09625 3.39787 3.09625 3.35296C3.09625 3.30806 3.08738 3.26359 3.07015 3.22211C3.05292 3.18064 3.02766 3.14298 2.99583 3.11128C2.79196 3.00607 2.56781 2.94595 2.33862 2.935C2.34821 3.16481 2.4074 3.38984 2.51217 3.59465Z" fill="#C2874A"/>
<path d="M4.75697 3.34171C4.55211 3.23645 4.32702 3.17634 4.09692 3.16544C4.10788 3.39447 4.16804 3.61847 4.27331 3.82221C4.30503 3.85402 4.34272 3.87926 4.38422 3.89648C4.42572 3.9137 4.47022 3.92256 4.51515 3.92256C4.56008 3.92256 4.60456 3.9137 4.64606 3.89648C4.68756 3.87926 4.72525 3.85402 4.75697 3.82221C4.78871 3.79076 4.81391 3.75333 4.8311 3.7121C4.84829 3.67086 4.85715 3.62664 4.85715 3.58196C4.85715 3.53729 4.84829 3.49306 4.8311 3.45183C4.81391 3.41059 4.78871 3.37317 4.75697 3.34171Z" fill="#C2874A"/>
<path d="M4.08838 4.78027C4.09934 5.00932 4.1595 5.23332 4.26477 5.43706C4.29653 5.4688 4.33422 5.49398 4.37572 5.51116C4.41721 5.52833 4.46169 5.53717 4.5066 5.53717C4.55151 5.53717 4.59598 5.52833 4.63748 5.51116C4.67897 5.49398 4.71667 5.4688 4.74842 5.43706C4.78018 5.40533 4.80538 5.36765 4.82257 5.32618C4.83976 5.28472 4.8486 5.24027 4.8486 5.19539C4.8486 5.1505 4.83976 5.10607 4.82257 5.0646C4.80538 5.02313 4.78018 4.98545 4.74842 4.95372C4.54349 4.84902 4.31834 4.78985 4.08838 4.78027Z" fill="#C2874A"/>
<path d="M6.42405 4.2003C6.45579 4.16885 6.48099 4.13143 6.49818 4.09019C6.51538 4.04896 6.52423 4.00472 6.52423 3.96005C6.52423 3.91538 6.51538 3.87115 6.49818 3.82991C6.48099 3.78868 6.45579 3.75125 6.42405 3.7198C6.29318 3.58617 5.76685 3.54352 5.76685 3.54352C5.76685 3.54352 5.80952 4.06951 5.94324 4.2003C5.97471 4.23202 6.01217 4.2572 6.05344 4.27438C6.0947 4.29157 6.13895 4.30042 6.18365 4.30042C6.22836 4.30042 6.27261 4.29157 6.31387 4.27438C6.35514 4.2572 6.39258 4.23202 6.42405 4.2003Z" fill="#C2874A"/>
<path d="M4.44397 2.45454C4.50811 2.51863 4.59509 2.55464 4.6858 2.55464C4.7765 2.55464 4.86348 2.51863 4.92762 2.45454C4.99176 2.39044 5.0278 2.30351 5.0278 2.21287C5.0278 2.12222 4.99176 2.03529 4.92762 1.9712C4.72275 1.86593 4.49768 1.80582 4.26758 1.79492C4.27849 2.02487 4.33864 2.24981 4.44397 2.45454Z" fill="#C2874A"/>
</svg>
