<svg width="17" height="17" viewBox="0 0 17 17" fill="none" xmlns="http://www.w3.org/2000/svg">
<path d="M1.97125 11.4396H16.0741C16.1167 11.44 16.1589 11.4318 16.1984 11.4157C16.2378 11.3995 16.2736 11.3757 16.3037 11.3456C16.3339 11.3155 16.3577 11.2797 16.3739 11.2403C16.39 11.2009 16.3982 11.1586 16.3979 11.1161C16.3979 7.28106 13.6996 4.11 10.1811 3.52995C10.2159 3.41656 10.2337 3.29862 10.2339 3.18001C10.2199 2.86235 10.0837 2.56235 9.85384 2.34253C9.62396 2.1227 9.31805 2 8.99988 2C8.68171 2 8.37581 2.1227 8.14592 2.34253C7.91604 2.56235 7.7799 2.86235 7.76588 3.18001C7.76607 3.30098 7.78384 3.42128 7.81865 3.53714C4.32412 4.13636 1.64746 7.30743 1.64746 11.1161C1.64746 11.2019 1.68157 11.2842 1.7423 11.3449C1.80302 11.4055 1.88538 11.4396 1.97125 11.4396ZM8.99868 2.59757C9.09927 2.59767 9.19813 2.62369 9.28573 2.6731C9.37333 2.72251 9.4467 2.79365 9.49877 2.87966C9.55084 2.96566 9.57985 3.06363 9.583 3.1641C9.58615 3.26457 9.56333 3.36416 9.51674 3.45325C9.35365 3.45325 9.18816 3.43408 9.02267 3.43408C8.85717 3.43408 8.68209 3.43408 8.5142 3.45325H8.48542C8.43893 3.36887 8.41497 3.27394 8.41586 3.17761C8.41649 3.02356 8.47818 2.87602 8.58741 2.76731C8.69664 2.6586 8.84452 2.59757 8.99868 2.59757ZM9.02267 4.08363C12.6203 4.08363 15.58 7.06294 15.7383 10.7949H2.30703C2.46773 7.06294 5.41781 4.08363 9.02267 4.08363Z" fill="#C2874A"/>
<path d="M16.6738 12.5518H1.32379C1.23792 12.5518 1.15556 12.5859 1.09484 12.6466C1.03411 12.7073 1 12.7896 1 12.8754V15.4281C0.999998 15.5141 1.03403 15.5967 1.09469 15.6577C1.15534 15.7188 1.2377 15.7534 1.32379 15.7541H16.6738C16.7603 15.7541 16.8433 15.7197 16.9045 15.6586C16.9656 15.5974 17 15.5145 17 15.4281V12.8754C17 12.8327 16.9915 12.7904 16.9751 12.751C16.9587 12.7116 16.9346 12.6758 16.9043 12.6457C16.874 12.6157 16.838 12.5919 16.7985 12.5758C16.7589 12.5596 16.7165 12.5515 16.6738 12.5518ZM16.35 15.1045H1.64998V13.199H16.35V15.1045Z" fill="#C2874A"/>
</svg>
