<svg width="70" height="70" viewBox="0 0 70 70" fill="none" xmlns="http://www.w3.org/2000/svg">
<g clip-path="url(#clip0_60_2)">
<path d="M68.0575 34.8834C65.9779 32.7659 65.5142 29.5488 66.9113 26.9296C67.9088 25.063 67.9788 22.8434 67.0979 20.9155C66.22 18.9905 64.4933 17.5846 62.4283 17.118C59.5379 16.4617 57.4058 14.0059 57.1696 11.0484C56.9975 8.93964 55.8542 7.02922 54.0721 5.88589C52.2958 4.73964 50.085 4.49172 48.0929 5.21797C45.3046 6.23005 42.1838 5.31131 40.3871 2.95464C39.1038 1.27464 37.1088 0.285889 34.9913 0.285889C32.8767 0.285889 30.8817 1.27464 29.5983 2.95464C27.8104 5.31422 24.6896 6.23297 21.9013 5.22089C19.9121 4.49755 17.7013 4.74547 15.9221 5.88881C14.1429 7.03214 12.9967 8.94255 12.8275 11.0513C12.5883 14.0088 10.4592 16.4676 7.56877 17.1209C5.50377 17.5876 3.7771 18.9934 2.89918 20.9184C2.02126 22.8434 2.09126 25.0659 3.08876 26.9296C4.48585 29.5459 4.0221 32.7659 1.94543 34.8834C0.460848 36.3913 -0.233319 38.5059 0.067098 40.6001C0.367515 42.6942 1.63043 44.5288 3.4796 45.5584C6.0696 47.0021 7.42293 49.9626 6.81626 52.8646C6.38751 54.9355 6.9446 57.088 8.33001 58.6863C9.71835 60.2876 11.7717 61.148 13.8775 61.0138C16.8408 60.8301 19.5738 62.5888 20.6354 65.3567C21.3908 67.3342 23.0271 68.8421 25.06 69.4371C27.0871 70.0321 29.2804 69.6471 30.9838 68.3959C33.3725 66.6371 36.6304 66.6371 39.0163 68.3959C40.7196 69.6501 42.9129 70.0351 44.94 69.4371C46.9729 68.8421 48.6092 67.3313 49.3675 65.3567C50.4263 62.5888 53.1621 60.8271 56.1225 61.0138C58.2342 61.148 60.2846 60.2876 61.67 58.6863C63.0554 57.088 63.6154 54.9355 63.1838 52.8646C62.58 49.9626 63.9304 47.0021 66.5233 45.5584C68.3696 44.5259 69.6296 42.6942 69.9329 40.6001C70.2363 38.5059 69.5392 36.3913 68.0575 34.8834V34.8834ZM31.3542 50.7209L18.2292 37.9926L23.6454 32.5763L31.3542 39.8855L47.8129 23.0155L53.2292 28.4317L31.3542 50.7209Z" fill="#45B75C"/>
</g>
<defs>
<clipPath id="clip0_60_2">
<rect width="70" height="70" fill="white"/>
</clipPath>
</defs>
</svg>
