<svg width="73" height="70" viewBox="0 0 73 70" fill="none" xmlns="http://www.w3.org/2000/svg">
<path d="M70.968 67.3091L62.9636 26.8215C62.92 26.5391 62.7777 26.2812 62.5619 26.0937C62.3462 25.9062 62.0709 25.8012 61.785 25.7972H46.6985C48.4408 21.475 49.7732 17.4805 49.7732 15.2272C49.8218 13.508 49.5249 11.7965 48.9 10.194C48.2752 8.5914 47.3352 7.1303 46.1355 5.89711C44.9359 4.66391 43.5009 3.68363 41.9156 3.01425C40.3302 2.34488 38.6267 2 36.9057 2C35.1846 2 33.4811 2.34488 31.8957 3.01425C30.3104 3.68363 28.8754 4.66391 27.6758 5.89711C26.4761 7.1303 25.5361 8.5914 24.9113 10.194C24.2865 11.7965 23.9896 13.508 24.0381 15.2272C24.0381 17.4805 25.3397 21.475 27.1128 25.7972H11.1757C10.891 25.8015 10.6171 25.9069 10.403 26.0946C10.1889 26.2822 10.0487 26.5399 10.0073 26.8215L2.02341 67.3398C1.98848 67.5139 1.99268 67.6937 2.03576 67.8659C2.07885 68.0382 2.15974 68.1988 2.27253 68.336C2.38533 68.4733 2.52724 68.5837 2.68799 68.6594C2.84874 68.7351 3.02433 68.7742 3.20203 68.7737H69.8201C69.997 68.7735 70.1716 68.7339 70.3311 68.6577C70.4907 68.5815 70.6313 68.4707 70.7426 68.3333C70.8574 68.192 70.9377 68.0258 70.9768 67.8479C71.016 67.6701 71.0129 67.4856 70.968 67.3091ZM21.4144 56.2372H40.4057C41.193 57.3155 42.232 58.1851 43.4324 58.7706C44.6327 59.3561 45.958 59.6397 47.2929 59.5967C49.1516 59.6221 50.9731 59.075 52.5097 58.0296L65.6591 66.3771H20.9737L21.4144 56.2372ZM49.6707 50.3787C51.454 50.9932 52.6019 52.2632 52.6019 53.5947C52.5787 53.9877 52.4759 54.3719 52.2997 54.724C52.1235 55.0761 51.8776 55.3888 51.577 55.6432C50.3805 56.6666 48.8468 57.2103 47.2725 57.1693C44.946 57.1693 42.8449 56.0938 42.148 54.5473C42.0019 54.2258 41.9285 53.8761 41.9328 53.523C41.9328 51.5668 44.3618 49.9177 47.2417 49.9177C48.0722 49.9274 48.8945 50.0835 49.6707 50.3787ZM68.0573 65.066L54.2008 56.268C54.7173 55.4715 54.9947 54.5438 55.0002 53.5947C54.951 52.5538 54.6199 51.5457 54.0423 50.6781C53.4647 49.8104 52.6622 49.1158 51.7205 48.6682L61.2725 30.6009L68.0573 65.066ZM36.88 4.81087C38.2564 4.80548 39.6204 5.07124 40.8939 5.59295C42.1674 6.11466 43.3256 6.8821 44.3022 7.85138C45.2788 8.82067 46.0546 9.9728 46.5854 11.2419C47.1162 12.511 47.3914 13.8722 47.3954 15.2477C47.3954 19.7953 40.6107 34.1549 36.9313 41.4064C33.2519 34.1549 26.4569 19.7953 26.4569 15.2477C26.4595 12.4812 27.5569 9.82805 29.5096 7.86704C31.4623 5.90604 34.1118 4.79637 36.88 4.78014V4.81087ZM35.8551 44.6123C35.9569 44.8053 36.1096 44.9668 36.2965 45.0795C36.4834 45.1922 36.6976 45.2518 36.9159 45.2518C37.1342 45.2518 37.3484 45.1922 37.5353 45.0795C37.7223 44.9668 37.8749 44.8053 37.9767 44.6123C38.2636 44.0592 42.4452 36.0292 45.7556 28.2246H59.8479L49.4452 47.7976C48.735 47.6412 48.01 47.5622 47.2827 47.562C43.0397 47.562 39.5858 50.2557 39.5858 53.564V53.8405H21.4964L22.5213 28.2349H27.9942C31.3456 36.0395 35.5272 44.0285 35.8142 44.5815L35.8551 44.6123ZM12.2006 28.2246H20.205L19.1186 54.3014L5.73352 61.0716L12.2006 28.2246ZM5.14932 64.0725L19.0059 57.0566L18.6164 66.3771H4.65736L5.14932 64.0725Z" fill="#C2874A"/>
<path d="M42.998 15.1146C42.998 13.8992 42.6374 12.711 41.9617 11.7004C41.286 10.6898 40.3256 9.90215 39.2019 9.43703C38.0782 8.9719 36.8418 8.8502 35.6489 9.08732C34.4561 9.32444 33.3604 9.90972 32.5004 10.7692C31.6403 11.6286 31.0547 12.7236 30.8174 13.9157C30.5801 15.1078 30.7019 16.3434 31.1673 17.4663C31.6328 18.5892 32.421 19.549 33.4322 20.2243C34.4435 20.8995 35.6324 21.26 36.8486 21.26C38.4795 21.26 40.0437 20.6125 41.1969 19.46C42.3501 18.3076 42.998 16.7445 42.998 15.1146ZM33.1488 15.1146C33.1488 14.3772 33.3675 13.6564 33.7775 13.0433C34.1874 12.4302 34.7701 11.9524 35.4517 11.6702C36.1334 11.388 36.8835 11.3142 37.6072 11.458C38.3309 11.6019 38.9956 11.957 39.5173 12.4784C40.0391 12.9998 40.3944 13.6641 40.5383 14.3873C40.6823 15.1104 40.6084 15.8601 40.326 16.5413C40.0437 17.2226 39.5655 17.8048 38.952 18.2145C38.3385 18.6241 37.6172 18.8428 36.8794 18.8428C35.8899 18.8428 34.9411 18.45 34.2414 17.7508C33.5418 17.0516 33.1488 16.1034 33.1488 15.1146Z" fill="#C2874A"/>
</svg>
