<svg width="189" height="189" viewBox="0 0 189 189" fill="none" xmlns="http://www.w3.org/2000/svg">
<rect width="189" height="189" rx="3" fill="#490048"/>
<path opacity="0.2" d="M79.025 40.35V85.675H158.405V117.525H79.025V180H39.335V8.49999H168.94V40.35H79.025Z" fill="white"/>
<path d="M34.032 77.362V81.196H40.116V83.176H34.032V88H31.692V75.4H40.89V77.362H34.032ZM43.9629 75.4H46.3029V88H43.9629V75.4ZM54.859 82.726L52.861 84.778V88H50.521V75.4H52.861V81.862L59.089 75.4H61.717L56.425 81.034L62.041 88H59.305L54.859 82.726ZM64.4443 75.4H66.7843V88H64.4443V75.4ZM79.2463 88L76.6723 84.31C76.5643 84.322 76.4023 84.328 76.1863 84.328H73.3423V88H71.0023V75.4H76.1863C77.2783 75.4 78.2263 75.58 79.0303 75.94C79.8463 76.3 80.4703 76.816 80.9023 77.488C81.3343 78.16 81.5503 78.958 81.5503 79.882C81.5503 80.83 81.3163 81.646 80.8483 82.33C80.3923 83.014 79.7323 83.524 78.8683 83.86L81.7663 88H79.2463ZM79.1923 79.882C79.1923 79.078 78.9283 78.46 78.4003 78.028C77.8723 77.596 77.0983 77.38 76.0783 77.38H73.3423V82.402H76.0783C77.0983 82.402 77.8723 82.186 78.4003 81.754C78.9283 81.31 79.1923 80.686 79.1923 79.882ZM90.7629 75.4H93.1029V86.02H99.6909V88H90.7629V75.4ZM111.798 86.038V88H102.348V75.4H111.546V77.362H104.688V80.638H110.772V82.564H104.688V86.038H111.798ZM123.768 81.556H125.982V86.578C125.334 87.094 124.578 87.49 123.714 87.766C122.85 88.042 121.962 88.18 121.05 88.18C119.766 88.18 118.608 87.904 117.576 87.352C116.544 86.788 115.734 86.014 115.146 85.03C114.558 84.046 114.264 82.936 114.264 81.7C114.264 80.464 114.558 79.354 115.146 78.37C115.734 77.386 116.544 76.618 117.576 76.066C118.62 75.502 119.79 75.22 121.086 75.22C122.142 75.22 123.102 75.394 123.966 75.742C124.83 76.09 125.556 76.6 126.144 77.272L124.668 78.712C123.708 77.752 122.55 77.272 121.194 77.272C120.306 77.272 119.514 77.458 118.818 77.83C118.134 78.202 117.594 78.724 117.198 79.396C116.814 80.068 116.622 80.836 116.622 81.7C116.622 82.54 116.814 83.296 117.198 83.968C117.594 84.64 118.134 85.168 118.818 85.552C119.514 85.936 120.3 86.128 121.176 86.128C122.16 86.128 123.024 85.912 123.768 85.48V81.556ZM138.05 85.084H131.75L130.508 88H128.096L133.766 75.4H136.07L141.758 88H139.31L138.05 85.084ZM137.276 83.248L134.9 77.74L132.542 83.248H137.276ZM144.171 75.4H146.511V86.02H153.099V88H144.171V75.4ZM35.598 116.18C34.626 116.18 33.684 116.042 32.772 115.766C31.872 115.49 31.158 115.124 30.63 114.668L31.44 112.85C31.956 113.258 32.586 113.594 33.33 113.858C34.086 114.11 34.842 114.236 35.598 114.236C36.534 114.236 37.23 114.086 37.686 113.786C38.154 113.486 38.388 113.09 38.388 112.598C38.388 112.238 38.256 111.944 37.992 111.716C37.74 111.476 37.416 111.29 37.02 111.158C36.624 111.026 36.084 110.876 35.4 110.708C34.44 110.48 33.66 110.252 33.06 110.024C32.472 109.796 31.962 109.442 31.53 108.962C31.11 108.47 30.9 107.81 30.9 106.982C30.9 106.286 31.086 105.656 31.458 105.092C31.842 104.516 32.412 104.06 33.168 103.724C33.936 103.388 34.872 103.22 35.976 103.22C36.744 103.22 37.5 103.316 38.244 103.508C38.988 103.7 39.63 103.976 40.17 104.336L39.432 106.154C38.88 105.83 38.304 105.584 37.704 105.416C37.104 105.248 36.522 105.164 35.958 105.164C35.034 105.164 34.344 105.32 33.888 105.632C33.444 105.944 33.222 106.358 33.222 106.874C33.222 107.234 33.348 107.528 33.6 107.756C33.864 107.984 34.194 108.164 34.59 108.296C34.986 108.428 35.526 108.578 36.21 108.746C37.146 108.962 37.914 109.19 38.514 109.43C39.114 109.658 39.624 110.012 40.044 110.492C40.476 110.972 40.692 111.62 40.692 112.436C40.692 113.132 40.5 113.762 40.116 114.326C39.744 114.89 39.174 115.34 38.406 115.676C37.638 116.012 36.702 116.18 35.598 116.18ZM53.2723 114.038V116H43.8223V103.4H53.0203V105.362H46.1623V108.638H52.2463V110.564H46.1623V114.038H53.2723ZM64.9349 116L62.3609 112.31C62.2529 112.322 62.0909 112.328 61.8749 112.328H59.0309V116H56.6909V103.4H61.8749C62.9669 103.4 63.9149 103.58 64.7189 103.94C65.5349 104.3 66.1589 104.816 66.5909 105.488C67.0229 106.16 67.2389 106.958 67.2389 107.882C67.2389 108.83 67.0049 109.646 66.5369 110.33C66.0809 111.014 65.4209 111.524 64.5569 111.86L67.4549 116H64.9349ZM64.8809 107.882C64.8809 107.078 64.6169 106.46 64.0889 106.028C63.5609 105.596 62.7869 105.38 61.7669 105.38H59.0309V110.402H61.7669C62.7869 110.402 63.5609 110.186 64.0889 109.754C64.6169 109.31 64.8809 108.686 64.8809 107.882ZM82.1869 103.4L76.6969 116H74.3929L68.8849 103.4H71.4229L75.6169 113.12L79.8469 103.4H82.1869ZM84.3265 103.4H86.6665V116H84.3265V103.4ZM96.7166 116.18C95.4446 116.18 94.2926 115.904 93.2606 115.352C92.2406 114.788 91.4366 114.014 90.8486 113.03C90.2726 112.046 89.9846 110.936 89.9846 109.7C89.9846 108.464 90.2786 107.354 90.8666 106.37C91.4546 105.386 92.2586 104.618 93.2786 104.066C94.3106 103.502 95.4626 103.22 96.7346 103.22C97.7666 103.22 98.7086 103.4 99.5606 103.76C100.413 104.12 101.133 104.642 101.721 105.326L100.209 106.748C99.2966 105.764 98.1746 105.272 96.8426 105.272C95.9786 105.272 95.2046 105.464 94.5206 105.848C93.8366 106.22 93.3026 106.742 92.9186 107.414C92.5346 108.086 92.3426 108.848 92.3426 109.7C92.3426 110.552 92.5346 111.314 92.9186 111.986C93.3026 112.658 93.8366 113.186 94.5206 113.57C95.2046 113.942 95.9786 114.128 96.8426 114.128C98.1746 114.128 99.2966 113.63 100.209 112.634L101.721 114.074C101.133 114.758 100.407 115.28 99.5426 115.64C98.6906 116 97.7486 116.18 96.7166 116.18ZM114.223 114.038V116H104.773V103.4H113.971V105.362H107.113V108.638H113.197V110.564H107.113V114.038H114.223Z" fill="white"/>
</svg>
