<svg width="55" height="36" viewBox="0 0 55 36" fill="none" xmlns="http://www.w3.org/2000/svg">
<path d="M55 23.85C55 25.2 52.25 26.1 49.0417 26.55C46.9792 22.725 42.8542 19.8 38.0417 17.775C38.5 17.1 38.9583 16.65 39.4167 15.975H41.25C48.3542 15.75 55 20.025 55 23.85ZM15.5833 15.75H13.75C6.64583 15.75 0 20.025 0 23.85C0 25.2 2.75 26.1 5.95833 26.55C8.02083 22.725 12.1458 19.8 16.9583 17.775L15.5833 15.75ZM27.5 18C32.5417 18 36.6667 13.95 36.6667 9C36.6667 4.05 32.5417 0 27.5 0C22.4583 0 18.3333 4.05 18.3333 9C18.3333 13.95 22.4583 18 27.5 18ZM27.5 20.25C18.1042 20.25 9.16667 26.1 9.16667 31.5C9.16667 36 27.5 36 27.5 36C27.5 36 45.8333 36 45.8333 31.5C45.8333 26.1 36.8958 20.25 27.5 20.25ZM40.5625 13.5H41.25C45.1458 13.5 48.125 10.575 48.125 6.75C48.125 2.925 45.1458 0 41.25 0C40.1042 0 39.1875 0.225 38.2708 0.675C40.1042 2.925 41.25 5.85 41.25 9C41.25 10.575 41.0208 12.15 40.5625 13.5ZM13.75 13.5H14.4375C13.9792 12.15 13.75 10.575 13.75 9C13.75 5.85 14.8958 2.925 16.7292 0.675C15.8125 0.225 14.8958 0 13.75 0C9.85417 0 6.875 2.925 6.875 6.75C6.875 10.575 9.85417 13.5 13.75 13.5Z" fill="#191E19"/>
</svg>
