<svg width="21" height="21" viewBox="0 0 21 21" fill="none" xmlns="http://www.w3.org/2000/svg">
<path d="M10.4997 7.00062C8.57293 7.00062 7.00056 8.57299 7.00056 10.4997C7.00056 12.4265 8.57293 13.9989 10.4997 13.9989C12.4264 13.9989 13.9988 12.4265 13.9988 10.4997C13.9988 8.57299 12.4264 7.00062 10.4997 7.00062ZM20.9944 10.4997C20.9944 9.05074 21.0076 7.61487 20.9262 6.16849C20.8448 4.48849 20.4616 2.99749 19.2331 1.76899C18.0019 0.537867 16.5136 0.157242 14.8336 0.0758667C13.3846 -0.00550831 11.9487 0.00761673 10.5023 0.00761673C9.05331 0.00761673 7.61743 -0.00550831 6.17106 0.0758667C4.49106 0.157242 3.00006 0.540492 1.77156 1.76899C0.54043 3.00012 0.159805 4.48849 0.0784302 6.16849C-0.00294483 7.61749 0.0101802 9.05337 0.0101802 10.4997C0.0101802 11.9461 -0.00294483 13.3846 0.0784302 14.831C0.159805 16.511 0.543055 18.002 1.77156 19.2305C3.00268 20.4616 4.49106 20.8422 6.17106 20.9236C7.62006 21.005 9.05593 20.9919 10.5023 20.9919C11.9513 20.9919 13.3872 21.005 14.8336 20.9236C16.5136 20.8422 18.0046 20.459 19.2331 19.2305C20.4642 17.9994 20.8448 16.511 20.9262 14.831C21.0102 13.3846 20.9944 11.9487 20.9944 10.4997V10.4997ZM10.4997 15.8836C7.52031 15.8836 5.11581 13.4791 5.11581 10.4997C5.11581 7.52037 7.52031 5.11587 10.4997 5.11587C13.4791 5.11587 15.8836 7.52037 15.8836 10.4997C15.8836 13.4791 13.4791 15.8836 10.4997 15.8836ZM16.1041 6.15274C15.4084 6.15274 14.8467 5.59099 14.8467 4.89537C14.8467 4.19974 15.4084 3.63799 16.1041 3.63799C16.7997 3.63799 17.3614 4.19974 17.3614 4.89537C17.3616 5.06055 17.3293 5.22414 17.2661 5.37679C17.203 5.52943 17.1104 5.66813 16.9936 5.78493C16.8768 5.90173 16.7381 5.99434 16.5855 6.05745C16.4328 6.12057 16.2692 6.15295 16.1041 6.15274V6.15274Z" fill="white"/>
</svg>
