<svg id="Layer_1" data-name="Layer 1" xmlns="http://www.w3.org/2000/svg" viewBox="0 0 12.69154 19.40763"><defs><style>.cls-1{fill:#32c05c;}.cls-2{fill:#38a344;}.cls-3{fill:#ffe68b;}.cls-4{fill:#a82f2f;}.cls-5{fill:#18c6e0;}.cls-6{fill:#dc4da0;}.cls-7{fill:#6946a8;}.cls-8{fill:#c2884a;}.cls-9{fill:#a36f40;}.cls-10{fill:#b7428b;}</style></defs><g id="BG"><path class="cls-1" d="M13.00252,4.80111a9.40378,9.40378,0,0,0-2.30879-3.00335A5.87181,5.87181,0,0,0,6.93681.21205,4.34571,4.34571,0,0,0,6.32.25583,5.17754,5.17754,0,0,0,2.64089,2.64006,8.34245,8.34245,0,0,0,1.40657,7.174a10.29283,10.29283,0,0,0,.0555,1.06157A9.67129,9.67129,0,0,0,2.877,12.33566a7.67155,7.67155,0,0,0,3.042,2.838l.02111.01055c.03674.018.07231.03518.10827.052a6.87152,6.87152,0,0,0,.67657.2736c.03283.01134.06527.02228.09732.03244.13915.04573.27048.08365.39086.11726h0c.03635.00977.07192.01915.10671.02736l.11334.027.02541.00547.00938.02463c.08169.215.15634.41079.22044.58628.01486.03909.02854.07622.04183.11218q.08793.23685.152.41313c.0426.11726.06723.18566.084.23452a.998.998,0,0,1,.03283.11726h0a2.50729,2.50729,0,0,1,.07349.555A1.06951,1.06951,0,0,1,7.8862,18.41a1.79351,1.79351,0,0,1-.13641.15635.54178.54178,0,0,0-.09811.13328.22329.22329,0,0,0-.0211.09576v.01993a.3016.3016,0,0,0,.00586.03323.34318.34318,0,0,0,.041.10162.47.47,0,0,0,.23881.16338,2.08887,2.08887,0,0,0,.41275.09967,5.851,5.851,0,0,0,.8208.05354h.15673a6.27243,6.27243,0,0,0,1.34377-.16885,2.6774,2.6774,0,0,0,.6969-.27672,1.41165,1.41165,0,0,0,.31-.229.681.681,0,0,0,.17549-.28885.631.631,0,0,0,.0258-.18057.97735.97735,0,0,0-.03909-.25211c-.26891-1.03186-.38147-1.3723-.394-1.40943v-.00508c-.04182-.138-.11022-.36115-.19543-.63866-.05316-.17471-.13054-.446-.19934-.69377a.43252.43252,0,0,1-.02228-.11218.14419.14419,0,0,1,.01525-.06644h0a.14694.14694,0,0,1,.0426-.04925l.00586-.00391h0l.0043-.00313.00587-.00273a4.16924,4.16924,0,0,0,2.12235-2.22554,8.70358,8.70358,0,0,0,.69729-3.55681A10.38661,10.38661,0,0,0,13.00252,4.80111Zm-1.36292,6.156a4.46358,4.46358,0,0,1-1.07681,1.98555c-.01525.01564-.03049.03166-.0469.04691s-.03088.03087-.04691.04612c-.032.03048-.06449.06058-.0981.0895l-.03909.03557c-.03244.02775-.06605.05511-.10006.08208-.01641.01368-.034.02658-.0512.03909l-.05237.03908-.02658.01915-.02658.01877c-.02306.016-.04612.032-.07.04729s-.0473.03088-.07114.04573-.0469.02853-.07035.04221l-.00469.00235c-.02385.01446-.04808.02814-.0727.04143l-.04847.02579-.00938.00509c-.018.00938-.036.01876-.05472.02775a3.08825,3.08825,0,0,1-.35842.15126l-.02462.0086c-.02658.009-.05355.018-.0813.02618-.04417.01447-.08911.02737-.13406.03909l-.03909.01016c-.03908.00977-.07817.01915-.11726.02775h-.007c-.01407.00313-.02814.00626-.0426.0086-.0727.01486-.14775.02775-.224.03909l-.05393.00664c-.04456.00548-.09029.01056-.13641.01407-.061.00548-.12351.0086-.18644.01056H7.96671a2.50744,2.50744,0,0,1-1.19094-.3463A5.10593,5.10593,0,0,1,5.593,12.66046q-.06567-.068-.13016-.13875c-.01993-.0215-.03908-.04378-.05941-.06605-.03322-.03909-.06722-.07622-.10006-.11531s-.06644-.07817-.09888-.11726q-.09381-.11022-.18293-.22747c-.02032-.02619-.03908-.05277-.059-.07818-.02618-.03517-.05237-.07113-.07817-.10748s-.0469-.06606-.06957-.09928l-.03479-.0512q-.08911-.13133-.17432-.26813c-.02853-.04573-.05628-.09185-.084-.13875h0c-.01876-.03127-.03674-.06254-.05511-.0942s-.03635-.06332-.05394-.09537c-.03909-.06918-.07817-.13954-.11413-.21028-.01446-.02736-.02814-.05433-.04182-.0813q-.04768-.09381-.093-.18878-.02305-.04808-.04455-.09615c-.04691-.10123-.09147-.20364-.13446-.30722-.01485-.03556-.02931-.07074-.04338-.1067-.025-.0641-.04964-.12859-.0731-.19347-.01094-.02932-.02188-.05941-.03205-.08951C3.81855,9.74,3.80135,9.69,3.78454,9.63914V9.6364a5.90716,5.90716,0,0,1-.28415-1.08853,9.12486,9.12486,0,0,1-.13563-1.55132,7.28374,7.28374,0,0,1,.109-1.28983V5.704a3.13876,3.13876,0,0,1,.10866-.45027A6.84381,6.84381,0,0,1,3.849,4.53024,5.406,5.406,0,0,1,4.90826,2.89646a2.85415,2.85415,0,0,1,2.03363-.87,3.39227,3.39227,0,0,1,.51476.04143A4.1687,4.1687,0,0,1,10.04881,3.704a8.3873,8.3873,0,0,1,1.45086,2.9455A9.45559,9.45559,0,0,1,11.887,9.1791,6.6477,6.6477,0,0,1,11.6396,10.95711Z" transform="translate(-1.30846 -0.11355)"/><path class="cls-2" d="M13.092,4.75967A9.51624,9.51624,0,0,0,10.75744,1.7231,5.96429,5.96429,0,0,0,6.93681.11355a4.36928,4.36928,0,0,0-.63046.045,5.27321,5.27321,0,0,0-3.74715,2.428,8.44542,8.44542,0,0,0-1.25074,4.5871,10.15889,10.15889,0,0,0,.05667,1.06978,9.76594,9.76594,0,0,0,1.42859,4.145,7.78437,7.78437,0,0,0,3.0823,2.874l.084.03909.10749.05042a6.835,6.835,0,0,0,.65547.25953c.03322.01133.066.02228.09888.03244.11492.03908.22475.06918.32793.09732l.10319.02658c.04612.01172.09146.02306.13484.03283q.13134.34708.23452.62342h0c.01368.03908.02736.07465.03908.11022q.07387.19875.12938.35177c.04221.11726.06762.18566.08325.23452a1.10293,1.10293,0,0,1,.03088.10865h0a2.40614,2.40614,0,0,1,.07113.53313.97065.97065,0,0,1-.1665.58863c-.05238.07036-.11726.12977-.17315.19543a.5342.5342,0,0,0-.07231.10983.31808.31808,0,0,0-.03009.1368v.01251a.42994.42994,0,0,0,.06253.19348.39635.39635,0,0,0,.11726.11725.80593.80593,0,0,0,.16924.08521,2.65134,2.65134,0,0,0,.66837.13367c.23412.02189.4573.02658.60114.02658.09888,0,.15986-.00195.15986-.00195A6.36,6.36,0,0,0,10.6777,19.187a2.78806,2.78806,0,0,0,.72152-.28572,1.54107,1.54107,0,0,0,.33106-.24585.78177.78177,0,0,0,.19973-.32988.73864.73864,0,0,0,.02931-.20833,1.08014,1.08014,0,0,0-.04182-.27672c-.27595-1.05532-.38734-1.39106-.39672-1.41842h0c-.04182-.13759-.10983-.36038-.19543-.63749-.05316-.17354-.13015-.444-.19895-.69182a.36866.36866,0,0,1-.01837-.0856.05377.05377,0,0,1,.0043-.02228l.009-.01133.00548-.00391h0a4.26394,4.26394,0,0,0,2.1673-2.27284A8.84749,8.84749,0,0,0,14,9.10093,10.48869,10.48869,0,0,0,13.092,4.75967Zm.1153,7.89532A4.17892,4.17892,0,0,1,11.085,14.88053l-.00586.00274-.0043.00313h0l-.00586.0039a.147.147,0,0,0-.0426.04925h0a.14426.14426,0,0,0-.01525.06645.43253.43253,0,0,0,.02228.11217c.06879.24781.14618.51906.19934.69378.08482.27751.15322.50068.19543.63866v.00508c.01251.03713.12507.37757.394,1.40943a.97728.97728,0,0,1,.03909.2521.6311.6311,0,0,1-.0258.18058.68087.68087,0,0,1-.17549.28884,1.41133,1.41133,0,0,1-.30995.229,2.67707,2.67707,0,0,1-.6969.27673,6.27317,6.27317,0,0,1-1.34377.16885H9.15258a5.84955,5.84955,0,0,1-.8208-.05355,2.08815,2.08815,0,0,1-.41275-.09966.46649.46649,0,0,1-.23881-.16338.34286.34286,0,0,1-.041-.10163.3034.3034,0,0,1-.00587-.03322v-.01993a.22315.22315,0,0,1,.02111-.09576.5418.5418,0,0,1,.0981-.13329,1.79169,1.79169,0,0,0,.13641-.15634,1.06733,1.06733,0,0,0,.18644-.64765,2.50677,2.50677,0,0,0-.07348-.555h0c-.00821-.03635-.0168-.06723-.03283-.11725s-.04143-.11726-.084-.23452-.09342-.25523-.15205-.41314c-.01329-.036-.027-.07348-.04182-.11217q-.09732-.26206-.22044-.58629l-.00938-.02462-.02541-.00547c-.03635-.00821-.07426-.0172-.11335-.027s-.07035-.01759-.1067-.02736h0c-.12195-.032-.25328-.07-.39086-.11726-.032-.01016-.06449-.02111-.09732-.03244a6.8717,6.8717,0,0,1-.67658-.2736c-.036-.01681-.07152-.034-.10826-.052l-.02111-.01055A7.6191,7.6191,0,0,1,2.877,12.33566,9.67136,9.67136,0,0,1,1.46246,8.23518,10.29578,10.29578,0,0,1,1.407,7.17361,8.34867,8.34867,0,0,1,2.64128,2.63966,5.17447,5.17447,0,0,1,6.32042.25543,4.34743,4.34743,0,0,1,6.93681.21205a5.86873,5.86873,0,0,1,3.75652,1.58571,9.44645,9.44645,0,0,1,2.30919,3.00335,10.42786,10.42786,0,0,1,.9021,4.29708,8.696,8.696,0,0,1-.69729,3.5568Z" transform="translate(-1.30846 -0.11355)"/><path class="cls-2" d="M11.49967,6.64947A8.40746,8.40746,0,0,0,10.04881,3.704,4.16335,4.16335,0,0,0,7.45665,2.06784a3.39227,3.39227,0,0,0-.51476-.04143,2.76517,2.76517,0,0,0-.88608.147,2.80759,2.80759,0,0,0-1.14755.72309A5.406,5.406,0,0,0,3.849,4.53024a6.84481,6.84481,0,0,0-.26578.7227,3.1399,3.1399,0,0,0-.10827.44987v.00274a7.28452,7.28452,0,0,0-.109,1.28983,9.12474,9.12474,0,0,0,.13563,1.55131,5.90726,5.90726,0,0,0,.28415,1.08854V9.638c.01681.05081.034.10084.0516.15048.01016.03009.0211.06019.032.0895.02345.06488.04807.12938.07309.19348.01446.03595.02853.07113.04338.1067q.06333.15635.13446.30721.02189.04808.04456.09615.04572.095.093.18879c.01368.027.02736.05394.04182.0813.03674.07074.07505.14109.11413.21028.01759.032.036.0641.05394.09537s.03635.06292.05511.09419h0c.02775.04691.0555.093.084.13876.05667.09107.11413.18057.17432.26812l.03478.05121c.02267.03322.04573.06605.06958.09927s.05159.07231.07817.10749c.01915.02658.03908.05316.059.07817q.08715.11725.179.22709c.03244.03909.06527.07817.09889.11726s.06683.07817.10006.1153c.01993.02228.03908.04456.05941.06606q.06449.07113.13015.13875a5.168,5.168,0,0,0,1.18274.9318A2.50119,2.50119,0,0,0,7.964,13.937h.30174c.06293,0,.12547-.00508.18644-.01055.04612-.00352.09185-.0086.13641-.01407l.05394-.00665c.07817-.00977.15126-.02267.224-.03908.01446-.00235.02853-.00547.0426-.0086h.007c.03908-.0086.07817-.018.11725-.02775l.03909-.01016c.045-.01173.0899-.02463.13406-.03909.02775-.00821.05472-.0172.0813-.02619l.02463-.0086a3.08873,3.08873,0,0,0,.36037-.14813c.01876-.009.03674-.01837.05472-.02775l.00938-.00508.04846-.0258c.02463-.01329.04886-.027.0727-.04143l.00469-.00234c.02345-.01368.0473-.02815.07036-.04222s.04768-.03009.07113-.04573.04691-.03127.07-.04729l.02657-.01876.02658-.01915c.01759-.0129.03518-.0258.05238-.03909s.03478-.02541.0512-.03909c.034-.027.06762-.05432.10006-.08208l.03908-.03556c.03362-.02893.06606-.059.09811-.08951.016-.01524.03166-.03049.0469-.04612l.04691-.0469a4.48309,4.48309,0,0,0,1.07681-1.98556,6.64763,6.64763,0,0,0,.24741-1.778A9.35534,9.35534,0,0,0,11.49967,6.64947Zm.04456,4.283a4.39391,4.39391,0,0,1-1.0518,1.94139,3.17855,3.17855,0,0,1-2.36273.96894H7.96437a2.39859,2.39859,0,0,1-1.14326-.33419,5.72743,5.72743,0,0,1-1.69945-1.54427A8.13926,8.13926,0,0,1,3.87874,9.60552V9.6024a5.80938,5.80938,0,0,1-.27986-1.07213,8.96853,8.96853,0,0,1-.13445-1.53411,7.204,7.204,0,0,1,.10709-1.2738V5.71962a3.999,3.999,0,0,1,.17511-.652A6.33584,6.33584,0,0,1,4.5514,3.47258,3.06239,3.06239,0,0,1,6.08513,2.268a2.6478,2.6478,0,0,1,.85637-.14305,3.30857,3.30857,0,0,1,.4999.03908A4.07673,4.07673,0,0,1,9.97181,3.76455a8.33529,8.33529,0,0,1,1.43367,2.9115,9.3067,9.3067,0,0,1,.383,2.50148A6.52286,6.52286,0,0,1,11.54423,10.93248Z" transform="translate(-1.30846 -0.11355)"/><path class="cls-3" d="M11.78852,9.1791a6.51966,6.51966,0,0,1-.24429,1.75338,4.39391,4.39391,0,0,1-1.0518,1.94139,3.17855,3.17855,0,0,1-2.36273.96894H7.96437a2.39859,2.39859,0,0,1-1.14326-.33419,5.72743,5.72743,0,0,1-1.69945-1.54427A8.13926,8.13926,0,0,1,3.87874,9.60552V9.6024a5.80938,5.80938,0,0,1-.27986-1.07213,8.96853,8.96853,0,0,1-.13445-1.53411,7.204,7.204,0,0,1,.10709-1.2738V5.71962a3.999,3.999,0,0,1,.17511-.652A6.33584,6.33584,0,0,1,4.5514,3.47258,3.06239,3.06239,0,0,1,6.08513,2.268a2.6478,2.6478,0,0,1,.85637-.14305,3.30857,3.30857,0,0,1,.4999.03908A4.07673,4.07673,0,0,1,9.97181,3.76455a8.33529,8.33529,0,0,1,1.43367,2.9115A9.30807,9.30807,0,0,1,11.78852,9.1791Z" transform="translate(-1.30846 -0.11355)"/></g><g id="DOTS"><path class="cls-4" d="M9.364,9.85958a.21108.21108,0,0,1-.23217-.02931H9.12912a.32648.32648,0,0,1-.08169-.0942.31778.31778,0,0,1-.04338-.16963V9.56175a.19542.19542,0,0,1,.09224-.1626.24644.24644,0,0,1,.3166.12547A.24217.24217,0,0,1,9.364,9.85958Z" transform="translate(-1.30846 -0.11355)"/><path class="cls-4" d="M10.85632,17.57a.21108.21108,0,0,1-.23217-.02931l-.00273-.002h0a.32629.32629,0,0,1-.08169-.09419.31857.31857,0,0,1-.04339-.16964v-.00469a.19543.19543,0,0,1,.09264-.16259.27451.27451,0,0,1,.26734.46238Z" transform="translate(-1.30846 -0.11355)"/><path class="cls-4" d="M10.725,8.0976a.34544.34544,0,0,0-.32167.35177.327.327,0,0,0,.32207.34317.33071.33071,0,0,0,.331-.35177A.352.352,0,0,0,10.725,8.0976Z" transform="translate(-1.30846 -0.11355)"/><path class="cls-5" d="M8.34585,7.688a.18135.18135,0,0,0-.20012.12859.27358.27358,0,0,0,.02267.24819.16725.16725,0,0,0,.15634.08208.16454.16454,0,0,0,.15634-.10631.52032.52032,0,0,0,.02306-.10045A.23329.23329,0,0,0,8.34585,7.688Z" transform="translate(-1.30846 -0.11355)"/><polygon points="5.561 2.806 5.562 2.805 5.557 2.802 5.561 2.806"/><ellipse class="cls-5" cx="9.15075" cy="11.65146" rx="0.25836" ry="0.17237"/><ellipse class="cls-6" cx="4.2795" cy="3.56384" rx="0.28728" ry="0.17237"/><ellipse class="cls-5" cx="8.46128" cy="4.32758" rx="0.2009" ry="0.31581"/><ellipse class="cls-7" cx="6.28381" cy="2.73796" rx="0.22631" ry="0.25836"/><ellipse class="cls-4" cx="3.44697" cy="4.80208" rx="0.31581" ry="0.22982"/><circle class="cls-5" cx="3.60722" cy="6.25177" r="0.22982"/><ellipse class="cls-7" cx="2.75633" cy="7.78862" rx="0.25328" ry="0.16142"/><ellipse class="cls-6" cx="9.42904" cy="9.9055" rx="0.43072" ry="0.22982"/><ellipse class="cls-6" cx="8.90607" cy="5.79954" rx="0.31308" ry="0.188"/><ellipse class="cls-7" cx="8.12944" cy="7.09445" rx="0.27321" ry="0.38499"/><ellipse class="cls-7" cx="9.7531" cy="17.82877" rx="0.55463" ry="0.3975" transform="translate(-10.09019 9.38166) rotate(-37.11)"/><ellipse class="cls-7" cx="9.84121" cy="16.65324" rx="0.39008" ry="0.54915" transform="translate(-10.43738 12.75628) rotate(-48.14)"/><ellipse class="cls-3" cx="9.28521" cy="14.05093" rx="0.34356" ry="0.21067"/><ellipse class="cls-7" cx="12.63957" cy="10.37152" rx="0.51515" ry="0.36936" transform="translate(-4.16876 15.46193) rotate(-57.93)"/><ellipse class="cls-5" cx="12.65606" cy="10.12702" rx="0.35294" ry="0.15791" transform="translate(-3.18304 17.19628) rotate(-64.97)"/><ellipse class="cls-6" cx="11.45642" cy="7.6526" rx="0.3846" ry="0.22709"/><ellipse class="cls-4" cx="9.961" cy="4.1513" rx="0.39398" ry="0.20442"/><ellipse class="cls-3" cx="9.19296" cy="2.42215" rx="0.3889" ry="0.30174"/><ellipse class="cls-3" cx="4.28497" cy="1.57203" rx="0.342" ry="0.20285"/><ellipse class="cls-3" cx="2.42175" cy="2.80245" rx="0.29236" ry="0.26305"/><ellipse class="cls-4" cx="10.602" cy="12.8893" rx="0.29236" ry="0.26305"/><ellipse class="cls-6" cx="1.27654" cy="4.91699" rx="0.24585" ry="0.32715"/><ellipse class="cls-7" cx="2.85805" cy="5.67117" rx="0.30121" ry="0.18904" transform="translate(-4.79152 5.20973) rotate(-60.11347)"/><ellipse class="cls-3" cx="1.67091" cy="9.64323" rx="0.39203" ry="0.19465"/><ellipse class="cls-7" cx="2.34163" cy="11.83321" rx="0.37131" ry="0.31972"/><circle class="cls-6" cx="4.51401" cy="1.36136" r="0.29705"/><ellipse class="cls-7" cx="7.2977" cy="1.48604" rx="0.39555" ry="0.29666"/><ellipse class="cls-4" cx="1.07212" cy="7.41261" rx="0.38968" ry="0.3248"/><ellipse class="cls-6" cx="2.15597" cy="11.49199" rx="0.34005" ry="0.20559"/><ellipse class="cls-7" cx="9.55295" cy="15.49942" rx="0.59762" ry="0.41001" transform="translate(-9.88419 13.70006) rotate(-53.04)"/><ellipse class="cls-6" cx="9.91037" cy="15.50152" rx="0.38578" ry="0.23491" transform="translate(-9.36701 11.43443) rotate(-45)"/><ellipse class="cls-5" cx="8.90842" cy="16.39881" rx="0.32832" ry="0.17549"/><ellipse class="cls-6" cx="7.65494" cy="15.63859" rx="0.25445" ry="0.37718"/><ellipse class="cls-4" cx="9.00949" cy="16.83195" rx="0.25132" ry="0.49522" transform="translate(-10.57163 11.18708) rotate(-45)"/><circle class="cls-3" cx="8.0157" cy="18.04588" r="0.36897"/><ellipse class="cls-7" cx="12.60631" cy="5.73261" rx="0.27533" ry="0.15845" transform="translate(0.04607 13.69244) rotate(-60.11347)"/><ellipse class="cls-5" cx="10.91821" cy="5.46653" rx="0.25171" ry="0.31933"/></g><g id="LADY"><g id="LEGS"><path class="cls-8" d="M8.28956,14.13751c-.00547.15009-.0168.32441-.03908.51867a4.5684,4.5684,0,0,1-.1286.76882,4.013,4.013,0,0,1-.91147,1.51652c-.16377.19543-.30878.34787-.40376.44323a2.14341,2.14341,0,0,1,.24077.67736,3.07483,3.07483,0,0,1,.03635.77272,3.32849,3.32849,0,0,1-.08873.5472.47912.47912,0,0,1-.08833-.05237.784.784,0,0,1-.20129-.27673,1.2861,1.2861,0,0,1-.15048-.43424,4.911,4.911,0,0,1-.1368-.84542c-.10319.11413-.19074.18136-.25132.25015a.14772.14772,0,0,0-.03674.11725,4.52862,4.52862,0,0,1,.09888.74263.86759.86759,0,0,1-.13289.49326A.47878.47878,0,0,1,5.996,19.341a1.67553,1.67553,0,0,0-.15634-.64139,1.6527,1.6527,0,0,0-.2009-.34239c-.02306-.02736-.14579-.11726-.18527-.16807a.1794.1794,0,0,1-.03908-.14814.22511.22511,0,0,1,.03478-.11725.32751.32751,0,0,1,.14462-.0985,1.3978,1.3978,0,0,0,.43268-.35607,1.23424,1.23424,0,0,0,.28532-.43385c0-.07426-.025-.26657-.027-.27868-.05706-.32168-.09028-.53431-.16963-1.07095-.07465-.50812-.15634-.99552-.23451-1.33087a1.99877,1.99877,0,0,0,.82393.15634c.03908,0,.07817,0,.11295-.002-.01876.127-.03517.25835-.04964.39476-.02462.23452-.03908.455-.04651.66446l.00313.8892.564-.73286.344-.39085c-.032-.07114-.13094-.57183-.19777-.888a3.13689,3.13689,0,0,0,.802-.27946Z" transform="translate(-1.30846 -0.11355)"/><path class="cls-9" d="M7.63136,15.33354l-.344.39085-.56127.72973-.00312-.8892c.007-.20793.02188-.42994.04651-.66445.01446-.13641.03088-.26774.04964-.39477h.05042a.42929.42929,0,0,0,.05-.00195c-.02072.136-.03909.2736-.052.40883-.02345.21693-.03908.437-.04651.65469l.00274.59957.38656-.50225.00195-.00234.00195-.00235.30722-.34942c-.0301-.1071-.07505-.32012-.138-.62538-.016-.07817-.03166-.15634-.04613-.22318l.04886-.00859.04808-.0086C7.50042,14.76171,7.60126,15.2624,7.63136,15.33354Z" transform="translate(-1.30846 -0.11355)"/><path class="cls-9" d="M8.38962,14.07849c-.00547.19543-.01837.39321-.03908.58864a4.70289,4.70289,0,0,1-.13133.78445,3.15735,3.15735,0,0,1-.48584.98886c-.01094.016-.02267.03244-.03439.04808s-.02306.032-.03557.04768c-.12039.163-.2482.31621-.37483.469-.11452.13719-.23452.27048-.35881.3979a2.30353,2.30353,0,0,1,.12625.29314,2.33047,2.33047,0,0,1,.08989.34864,3.1582,3.1582,0,0,1,.03909.79774,3.34921,3.34921,0,0,1-.09185.56362l-.02893.11491-.10748-.04964a.5895.5895,0,0,1-.1071-.06332.81628.81628,0,0,1-.2177-.28962l-.00978-.018a1.39952,1.39952,0,0,1-.16025-.46121l-.01133-.052c-.05707-.2697-.09029-.426-.10983-.59489l-.007.00665c-.03557.03322-.066.06175-.09029.0895a.04651.04651,0,0,0-.01289.03909c.00742.05667.01641.09888.02657.14774a3.44887,3.44887,0,0,1,.0727.60192.94094.94094,0,0,1-.15243.55775l-.03909.0516-.06253-.01485a.52917.52917,0,0,1-.12625-.04613l-.0469-.027-.00235-.05355a1.57479,1.57479,0,0,0-.14618-.60466,1.52112,1.52112,0,0,0-.186-.31933c-.00664-.00743-.03478-.03049-.05511-.04768a.98209.98209,0,0,1-.13406-.12547.27124.27124,0,0,1-.05824-.21536.3103.3103,0,0,1,.05472-.16807A.39318.39318,0,0,1,5.55,17.73927l.00665-.00235a1.27792,1.27792,0,0,0,.39555-.32715l.00625-.007a1.41971,1.41971,0,0,0,.25953-.36819c0-.06566-.02267-.24116-.0258-.26031-.05745-.326-.09107-.53665-.17-1.07369q-.03088-.20871-.061-.39711c-.007-.03908-.01329-.08012-.01994-.11725-.06175-.37405-.12038-.6758-.17237-.8853.01955.01056.03909.02033.05824.02971s.03909.018.05628.02619c.034.14657.06919.32324.10436.51749l.01447.084c.016.08989.03165.18409.04729.27985.00664.03909.0129.07817.01915.11726.0172.10866.034.22005.05081.33223.07817.53664.11257.74927.16963,1.071,0,.01211.02619.20441.027.27868a1.23857,1.23857,0,0,1-.28532.43385,1.367,1.367,0,0,1-.43268.35607.32757.32757,0,0,0-.14462.09849.22517.22517,0,0,0-.03478.11726.17941.17941,0,0,0,.03908.14814c.03909.04964.16221.14071.18527.16806a1.653,1.653,0,0,1,.19933.33966,1.67554,1.67554,0,0,1,.15635.64139.47878.47878,0,0,0,.10006.03557.86775.86775,0,0,0,.13289-.49326,4.52814,4.52814,0,0,0-.09889-.74263.14772.14772,0,0,1,.03674-.11725c.06059-.0688.14814-.136.25132-.25015a4.91292,4.91292,0,0,0,.1368.84542,1.30349,1.30349,0,0,0,.15048.43424.78394.78394,0,0,0,.2013.27673.47879.47879,0,0,0,.08833.05237,3.32847,3.32847,0,0,0,.08872-.5472,3.07483,3.07483,0,0,0-.03635-.77272,2.14363,2.14363,0,0,0-.24076-.67736c.095-.09536.24-.247.40375-.44323.13993-.16728.28064-.33614.4104-.51554h0l.0344-.04807.00391-.00626c.01094-.01407.02071-.02853.03009-.043.02306-.03323.04534-.06606.06645-.10006s.043-.0684.06371-.10319l.00469-.00743c.03908-.06722.07817-.1368.11257-.20832.00938-.01876.018-.03909.027-.05668s.01759-.03908.02619-.05745.016-.03909.02384-.05629c.0172-.04143.03362-.08325.04886-.12624l.02033-.059.01016-.03244.01172-.03714.0172-.059a4.5671,4.5671,0,0,0,.12859-.76881c.02111-.19543.03244-.36858.03909-.51867l.05-.02892Z" transform="translate(-1.30846 -0.11355)"/></g><path class="cls-6" d="M9.3867,12.33918a1.71137,1.71137,0,0,1-.61247,1.34572c-.13446.1067-.265.20051-.38187.27595-.01681.01133-.03362.02149-.04964.032l-.04925.02931c-.036.02111-.07035.03909-.1024.05628a3.02043,3.02043,0,0,1-.7782.27048l-.04808.00938-.04885.00821a2.88165,2.88165,0,0,1-.31269.03517c-.02189,0-.04378.00235-.06644.00274l-.05.00234a.444.444,0,0,0-.05082.002,1.95,1.95,0,0,1-.98144-.17589c-.01954-.00977-.03908-.02071-.059-.03166l-.0043-.00234c-.01954-.011-.03908-.02228-.05706-.034a2.33288,2.33288,0,0,1-.87748-1.31562,4.36264,4.36264,0,0,1-.23451-1.60252,8.25065,8.25065,0,0,1,.69846-3.06627,3.11152,3.11152,0,0,0,.12586.36779l.01993.04964c.17237.42017.46043,1.12294.96972,1.12333.54094,0,.97128-.66016,1.10612-.89272.14071.14774.31269.36936.53079.65469A7.08508,7.08508,0,0,1,9.0275,10.988,3.44,3.44,0,0,1,9.3867,12.33918Z" transform="translate(-1.30846 -0.11355)"/><path class="cls-10" d="M9.48519,12.33918v.00821a1.80513,1.80513,0,0,1-.65,1.41685,4.69267,4.69267,0,0,1-.44558.31621l-.05.03009-.05.02893-.05394.02853a3.13651,3.13651,0,0,1-.802.27946l-.04807.0086-.04886.0086a2.709,2.709,0,0,1-.33066.03713c-.02775,0-.05707.00313-.08638.00391a.4258.4258,0,0,0-.05.002.4327.4327,0,0,1-.05042,0c-.03674,0-.07427.002-.113.002a1.99893,1.99893,0,0,1-.82393-.15634c-.01876-.00821-.03908-.01681-.05628-.02619s-.03909-.01915-.05824-.02971l-.02658-.01446A2.37445,2.37445,0,0,1,4.764,12.8813a4.41215,4.41215,0,0,1-.23881-1.63887A8.397,8.397,0,0,1,5.2827,8.021q.00821.03908.01876.07817c.00625.02619.01329.05159.02032.07817a8.24137,8.24137,0,0,0-.7,3.06862,4.28917,4.28917,0,0,0,.23451,1.60252,2.33288,2.33288,0,0,0,.87748,1.31562c.01876.01173.03908.02306.05706.034l.0043.00234c.01993.01095.03909.02189.059.03166a1.95,1.95,0,0,0,.98144.17589.437.437,0,0,0,.05081-.002l.05-.00234c.02267,0,.04456-.002.06645-.00274a2.87918,2.87918,0,0,0,.31269-.03518l.04885-.0082.04808-.00938a3.0208,3.0208,0,0,0,.7782-.27048c.032-.01641.06644-.03517.1024-.05628l.04925-.02932c.016-.01055.03283-.02071.04964-.032.11725-.07543.24741-.16924.38186-.27594a1.70744,1.70744,0,0,0,.61248-1.34572,3.41291,3.41291,0,0,0-.35959-1.352,7.08508,7.08508,0,0,0-.95447-1.5048c-.21967-.28532-.39086-.50811-.53079-.65468.01016-.01759.01876-.03245.025-.04456l.01446-.02619L7.59071,8.737a8.272,8.272,0,0,1,.55814.68322A5.47144,5.47144,0,0,1,9.48519,12.33918Z" transform="translate(-1.30846 -0.11355)"/><path d="M8.97552,5.27287a1.61432,1.61432,0,0,1-1.436,1.24371,1.44407,1.44407,0,0,1-.33927-.02423.58386.58386,0,0,1,.08834-.15244,1.50016,1.50016,0,0,1,.29392-.28063c.03909-.02971.07544-.05981.11726-.095a1.31252,1.31252,0,0,0,.3932-.45691.85623.85623,0,0,0,.06645-.616.68324.68324,0,0,0-.40415-.47215.51987.51987,0,0,0-.15634-.02345.6781.6781,0,0,0-.31269.08286c-.59527.31268-.71409,1.42-.71527,1.43093a.30613.30613,0,0,1-.0254.08325.32166.32166,0,0,1-.06215.09185,1.57855,1.57855,0,0,1-.22279-1.531A1.54732,1.54732,0,0,1,7.61182,3.53a1.47139,1.47139,0,0,1,1.01036.37835A1.44869,1.44869,0,0,1,8.97552,5.27287Z" transform="translate(-1.30846 -0.11355)"/><path class="cls-9" d="M7.19946,6.49586V6.49313a.584.584,0,0,1,.08912-.15322,1.50016,1.50016,0,0,1,.29392-.28063c.03909-.02971.07544-.05981.11726-.095a1.31252,1.31252,0,0,0,.3932-.45691.85623.85623,0,0,0,.06645-.616.68324.68324,0,0,0-.40415-.47215.51987.51987,0,0,0-.15634-.02345.6781.6781,0,0,0-.31269.08286c-.59527.31268-.71409,1.42-.71527,1.43093a.30613.30613,0,0,1-.0254.08325.32166.32166,0,0,1-.06215.09185.59173.59173,0,0,1-.0938.07817L6.36576,6.18l-.03439.027c-.05863.04612-.06723.05316-.45652.33848-.08638.06371-.15635.11531-.21693.15635a1.23739,1.23739,0,0,0-.36936.32636.748.748,0,0,0-.075.55228,3.20793,3.20793,0,0,0,.06722.43854q.00822.03909.01876.07818c.00626.02618.01329.05159.02033.07817a3.11152,3.11152,0,0,0,.12586.36779l.01993.04964c.17237.42018.46043,1.12294.96972,1.12333.54094,0,.97128-.66016,1.10612-.89272.01016-.01759.01876-.03244.025-.04456l.01446-.02619.00977-.01915a2.17174,2.17174,0,0,0,.3033-1.1499,1.15182,1.15182,0,0,0-.58863-.81806c-.02071-.00977-.04143-.01876-.061-.027A.39914.39914,0,0,1,7.151,6.68934V6.68621A.77529.77529,0,0,1,7.19946,6.49586Zm.0641.36311a1.0473,1.0473,0,0,1,.53313.73833,2.209,2.209,0,0,1-.27985,1.06977l-.02267.04417h0l-.02424.045c-.16142.28611-.573.86575-1.03342.86575h0c-.462,0-.73638-.7184-.899-1.11238a3.10032,3.10032,0,0,1-.15322-.47646l-.01759-.07817c-.00547-.02384-.01094-.0555-.01563-.08286A3.0208,3.0208,0,0,1,5.312,7.56955a.66074.66074,0,0,1,.059-.48076c.08755-.12859.14149-.15048.56362-.46043.45261-.33262.39085-.28884.49287-.367a.86377.86377,0,0,0,.12429-.10241.43229.43229,0,0,0,.08482-.12429.415.415,0,0,0,.034-.11726c.00547-.07621.13876-1.07759.66172-1.3508a.59914.59914,0,0,1,.2693-.07231.41613.41613,0,0,1,.12586.01915.599.599,0,0,1,.34.4061.77679.77679,0,0,1-.061.5472,1.219,1.219,0,0,1-.3678.42252,2.30893,2.30893,0,0,0-.42564.39086.66682.66682,0,0,0-.10475.18175l-.00391.01055A.88963.88963,0,0,0,7.05406,6.68c-.01211.10006.09615.12546.2095.179Z" transform="translate(-1.30846 -0.11355)"/><path class="cls-8" d="M7.1037,6.47124l.00391-.01055a.66668.66668,0,0,1,.10475-.18175A2.33651,2.33651,0,0,1,7.638,5.88808a1.23322,1.23322,0,0,0,.3678-.42252.77594.77594,0,0,0,.061-.5472.59749.59749,0,0,0-.34-.4061.41613.41613,0,0,0-.12586-.01915.59914.59914,0,0,0-.2693.07231c-.523.2736-.65625,1.27458-.66172,1.3508a.41508.41508,0,0,1-.034.11726.43229.43229,0,0,1-.08482.12429.86444.86444,0,0,1-.12429.10241c-.10045.07817-.03909.03439-.49287.367-.42213.31-.47607.33184-.56362.46043a.66066.66066,0,0,0-.059.48075,3.02062,3.02062,0,0,0,.03909.30253c.00469.02736.00977.05472.01563.08286s.01134.05237.01759.07817a3.10032,3.10032,0,0,0,.15322.47646c.1622.394.43658,1.11159.899,1.11238h0c.46043,0,.872-.57965,1.03342-.86575l.02424-.045h0l.02267-.04417a2.20907,2.20907,0,0,0,.27985-1.06977,1.05053,1.05053,0,0,0-.53313-.73833c-.11335-.05355-.22161-.07818-.21028-.179A.88936.88936,0,0,1,7.1037,6.47124Zm-.24038,1.837c-.068.26734-.24115.54446-.41157.54446s-.35646-.2392-.44558-.58081a3.202,3.202,0,0,1-.08442-.69651.09109.09109,0,0,1,.01837-.06449.13206.13206,0,0,1,.10709-.03361l.7485-.01056a.12624.12624,0,0,1,.09536.025.1098.1098,0,0,1,.03909.08911,2.7497,2.7497,0,0,1-.06684.72856Z" transform="translate(-1.30846 -0.11355)"/><path class="cls-10" d="M6.89107,7.49294a.12624.12624,0,0,0-.09536-.025l-.7485.01056a.13213.13213,0,0,0-.10709.03361.09109.09109,0,0,0-.01837.06449,3.1773,3.1773,0,0,0,.08442.69651c.08912.34161.2736.58081.44558.58081s.34356-.27711.41157-.54446a2.77214,2.77214,0,0,0,.06528-.72739A.10983.10983,0,0,0,6.89107,7.49294Zm-.12233.79188c-.0684.265-.22631.469-.317.469-.10553,0-.26461-.17784-.35177-.51124a3.20547,3.20547,0,0,1-.07817-.66445.2129.2129,0,0,1,.027,0l.7524-.011h.007a.03285.03285,0,0,1,.02072.00235.03082.03082,0,0,1,.00234.01407A2.7712,2.7712,0,0,1,6.76874,8.28482Z" transform="translate(-1.30846 -0.11355)"/><path class="cls-6" d="M6.8301,7.58205a2.75455,2.75455,0,0,1-.06136.70355c-.0684.265-.22631.469-.317.469-.10553,0-.26461-.17784-.35177-.51124a3.20571,3.20571,0,0,1-.07817-.66446.2129.2129,0,0,1,.027,0l.7524-.01095h.007a.03285.03285,0,0,1,.02072.00235A.03078.03078,0,0,1,6.8301,7.58205Z" transform="translate(-1.30846 -0.11355)"/></g></svg>