<svg width="17" height="17" viewBox="0 0 17 17" fill="none" xmlns="http://www.w3.org/2000/svg">
<path d="M14.8988 7.55148L8.72904 2.29798C8.62836 2.20596 8.54828 2.09372 8.49403 1.96861C8.43979 1.84351 8.4126 1.70836 8.41425 1.57203C8.42682 1.31832 8.53652 1.07915 8.72064 0.904025C8.90477 0.728902 9.14922 0.631231 9.40341 0.631231C9.65759 0.631231 9.90204 0.728902 10.0862 0.904025C10.2703 1.07915 10.38 1.31832 10.3926 1.57203C10.3889 1.61255 10.3937 1.6534 10.4066 1.69197C10.4196 1.73054 10.4405 1.76598 10.468 1.79604C10.4954 1.82609 10.5288 1.85009 10.5661 1.86651C10.6034 1.88294 10.6436 1.89142 10.6843 1.89142C10.7251 1.89142 10.7653 1.88294 10.8026 1.86651C10.8398 1.85009 10.8733 1.82609 10.9007 1.79604C10.9282 1.76598 10.9491 1.73054 10.962 1.69197C10.975 1.6534 10.9798 1.61255 10.9761 1.57203C10.9764 1.32359 10.9176 1.07865 10.8047 0.857311C10.6919 0.635972 10.528 0.444555 10.3267 0.298782C10.1254 0.153009 9.8924 0.0570398 9.64678 0.018758C9.40115 -0.0195239 9.14994 0.000972637 8.91379 0.0785656C8.67763 0.156159 8.46326 0.288633 8.28829 0.465108C8.11332 0.641583 7.98273 0.857024 7.90727 1.09373C7.8318 1.33044 7.81361 1.58166 7.85417 1.82676C7.89474 2.07186 7.99292 2.30385 8.14063 2.50367L2.10401 7.54664C2.05828 7.58491 2.02545 7.63632 2.00996 7.69388C1.99448 7.75144 1.99709 7.81237 2.01746 7.8684C2.03782 7.92442 2.07494 7.97283 2.12378 8.00705C2.17262 8.04126 2.23081 8.05963 2.29046 8.05965H4.58355V15.9242C4.58355 16.0012 4.61417 16.075 4.66866 16.1295C4.72315 16.1839 4.79706 16.2145 4.87413 16.2145H12.1263C12.2034 16.2145 12.2773 16.1839 12.3318 16.1295C12.3863 16.075 12.4169 16.0012 12.4169 15.9242V8.06207H14.71C14.7693 8.06196 14.8271 8.04372 14.8757 8.00981C14.9243 7.97591 14.9614 7.92794 14.982 7.87237C15.0025 7.81679 15.0056 7.75627 14.9907 7.69891C14.9759 7.64155 14.9438 7.5901 14.8988 7.55148ZM11.8357 15.6362H5.16712V7.32643H11.8357V15.6362ZM12.4169 7.4813V7.03605C12.4169 6.95881 12.3863 6.8847 12.3319 6.82986C12.2775 6.77501 12.2036 6.74389 12.1263 6.74325H4.87413C4.79684 6.74389 4.72293 6.77501 4.66851 6.82986C4.61409 6.8847 4.58355 6.95881 4.58355 7.03605V7.4813H3.09437L8.55712 2.91746L13.9133 7.4813H12.4169Z" fill="#C2874A"/>
</svg>
