<svg width="15" height="15" viewBox="0 0 15 15" fill="none" xmlns="http://www.w3.org/2000/svg">
<path d="M13.146 6.66307L7.70209 2.02763C7.61326 1.94644 7.5426 1.8474 7.49474 1.73701C7.44687 1.62663 7.42288 1.50738 7.42434 1.38708C7.43543 1.16322 7.53222 0.95219 7.69469 0.797669C7.85715 0.643149 8.07284 0.556969 8.29712 0.556969C8.52141 0.556969 8.7371 0.643149 8.89956 0.797669C9.06203 0.95219 9.15882 1.16322 9.16991 1.38708C9.16664 1.42284 9.17088 1.45888 9.18233 1.49292C9.19379 1.52695 9.21221 1.55822 9.23644 1.58474C9.26066 1.61125 9.29015 1.63243 9.32303 1.64692C9.3559 1.66141 9.39143 1.6689 9.42736 1.6689C9.46329 1.6689 9.49883 1.66141 9.5317 1.64692C9.56457 1.63243 9.59406 1.61125 9.61828 1.58474C9.64251 1.55822 9.66094 1.52695 9.67239 1.49292C9.68385 1.45888 9.68808 1.42284 9.68482 1.38708C9.68503 1.16788 9.63321 0.95175 9.5336 0.756451C9.43399 0.561152 9.28944 0.392254 9.11182 0.263631C8.93421 0.135008 8.72859 0.0503292 8.51186 0.0165511C8.29513 -0.0172269 8.07348 0.00085821 7.8651 0.0693226C7.65673 0.137787 7.46758 0.254677 7.3132 0.410389C7.15881 0.566102 7.04359 0.756197 6.977 0.965057C6.91041 1.17392 6.89436 1.39558 6.93015 1.61185C6.96595 1.82812 7.05257 2.03281 7.18291 2.20912L1.85648 6.6588C1.81613 6.69257 1.78716 6.73793 1.7735 6.78872C1.75983 6.83951 1.76214 6.89327 1.78011 6.9427C1.79807 6.99214 1.83083 7.03485 1.87392 7.06504C1.91702 7.09523 1.96836 7.11143 2.02099 7.11145H4.04431V14.0507C4.04431 14.1187 4.07132 14.1839 4.1194 14.2319C4.16749 14.28 4.2327 14.307 4.3007 14.307H10.6997C10.7677 14.307 10.8329 14.28 10.881 14.2319C10.9291 14.1839 10.9561 14.1187 10.9561 14.0507V7.11359H12.9794C13.0317 7.11349 13.0827 7.0974 13.1256 7.06748C13.1685 7.03757 13.2013 6.99525 13.2194 6.94621C13.2375 6.89717 13.2402 6.84377 13.2271 6.79315C13.214 6.74254 13.1857 6.69715 13.146 6.66307ZM10.4433 13.7966H4.55922V6.4645H10.4433V13.7966ZM10.9561 6.60115V6.20828C10.9561 6.14013 10.9291 6.07473 10.8811 6.02634C10.8331 5.97795 10.7679 5.95049 10.6997 5.94992H4.3007C4.23251 5.95049 4.1673 5.97795 4.11927 6.02634C4.07125 6.07473 4.04431 6.14013 4.04431 6.20828V6.60115H2.73033L7.5504 2.57423L12.2765 6.60115H10.9561Z" fill="#191E19"/>
</svg>
