<svg width="19" height="19" viewBox="0 0 19 19" fill="none" xmlns="http://www.w3.org/2000/svg">
<path d="M18.2632 14.9956H4.0095V2.82673C4.00852 2.77143 3.99494 2.71709 3.9698 2.66782C3.94466 2.61856 3.90861 2.57567 3.86439 2.54241L0.586878 0.0744971C0.548654 0.0453785 0.505041 0.0241129 0.458551 0.0119202C0.412062 -0.000272565 0.36361 -0.00314738 0.316003 0.00346033C0.268397 0.010068 0.22257 0.0260268 0.181165 0.0504191C0.13976 0.0748113 0.103607 0.107151 0.0747703 0.145577C0.0455551 0.184006 0.024218 0.227819 0.0119789 0.274506C-0.000260227 0.321192 -0.00315489 0.369838 0.00345273 0.417646C0.0100603 0.465454 0.0260324 0.511485 0.0504768 0.553108C0.0749213 0.594731 0.107352 0.631121 0.145897 0.660197L3.27546 3.01722V15.371C3.27546 15.419 3.28498 15.4665 3.30346 15.5109C3.32194 15.5552 3.34901 15.5955 3.38313 15.6293C3.41724 15.6631 3.45772 15.6899 3.50223 15.708C3.54674 15.7261 3.59441 15.7353 3.64247 15.7349H5.91852C5.6157 15.9554 5.39047 16.266 5.27507 16.6223C5.15966 16.9785 5.16001 17.3621 5.27606 17.7182C5.3921 18.0742 5.61788 18.3844 5.92109 18.6044C6.2243 18.8244 6.58938 18.9429 6.96408 18.9429C7.33877 18.9429 7.70387 18.8244 8.00708 18.6044C8.31029 18.3844 8.53608 18.0742 8.65212 17.7182C8.76816 17.3621 8.76851 16.9785 8.65311 16.6223C8.5377 16.266 8.31247 15.9554 8.00965 15.7349H14.394C14.0912 15.9554 13.8659 16.266 13.7505 16.6223C13.6351 16.9785 13.6354 17.3621 13.7515 17.7182C13.8675 18.0742 14.0933 18.3844 14.3965 18.6044C14.6997 18.8244 15.0648 18.9429 15.4395 18.9429C15.8142 18.9429 16.1793 18.8244 16.4825 18.6044C16.7857 18.3844 17.0115 18.0742 17.1276 17.7182C17.2436 17.3621 17.2439 16.9785 17.1285 16.6223C17.0131 16.266 16.7879 15.9554 16.4851 15.7349H18.2632C18.314 15.7394 18.3651 15.7332 18.4133 15.7169C18.4615 15.7006 18.5058 15.6744 18.5434 15.64C18.5809 15.6057 18.6109 15.5639 18.6314 15.5173C18.652 15.4707 18.6625 15.4204 18.6625 15.3695C18.6625 15.3186 18.652 15.2683 18.6314 15.2217C18.6109 15.1752 18.5809 15.1334 18.5434 15.099C18.5058 15.0647 18.4615 15.0385 18.4133 15.0221C18.3651 15.0058 18.314 14.9997 18.2632 15.0042V14.9956ZM6.95982 18.1971C6.75363 18.1977 6.55191 18.137 6.38024 18.0229C6.20856 17.9088 6.07467 17.7463 5.9955 17.556C5.91633 17.3658 5.89547 17.1563 5.93556 16.9542C5.97564 16.752 6.07487 16.5664 6.22067 16.4207C6.36647 16.275 6.55228 16.1758 6.75454 16.1357C6.95679 16.0957 7.16638 16.1165 7.35677 16.1956C7.54715 16.2747 7.70977 16.4086 7.82397 16.5801C7.93817 16.7517 7.99882 16.9533 7.99826 17.1593C7.99754 17.4324 7.88946 17.6942 7.69733 17.8883C7.50519 18.0825 7.2444 18.1934 6.9712 18.1971H6.95982ZM15.4324 18.1971C15.2263 18.1971 15.0249 18.136 14.8536 18.0215C14.6823 17.9071 14.5488 17.7444 14.4701 17.554C14.3914 17.3637 14.3709 17.1544 14.4113 16.9524C14.4517 16.7505 14.5512 16.5651 14.6971 16.4197C14.843 16.2742 15.0288 16.1754 15.231 16.1355C15.4332 16.0957 15.6427 16.1167 15.8329 16.1959C16.0231 16.2751 16.1855 16.4089 16.2996 16.5804C16.4137 16.7519 16.4743 16.9534 16.4737 17.1593C16.473 17.4329 16.3645 17.6951 16.1718 17.8893C15.979 18.0835 15.7175 18.1941 15.4438 18.1971H15.4324Z" fill="#C2874A"/>
<path d="M5.56305 8.51881H15.7683C15.8166 8.51919 15.8645 8.50996 15.9092 8.49166C15.9539 8.47336 15.9945 8.44636 16.0287 8.41223C16.0628 8.37809 16.0898 8.33751 16.1081 8.29284C16.1265 8.24817 16.1357 8.20031 16.1353 8.15204V6.98064H18.2634C18.3608 6.98064 18.4541 6.942 18.5229 6.87322C18.5918 6.80443 18.6304 6.71114 18.6304 6.61387C18.6304 6.51659 18.5918 6.4233 18.5229 6.35452C18.4541 6.28574 18.3608 6.2471 18.2634 6.2471H16.1239V5.0757C16.1243 5.02743 16.1151 4.97957 16.0968 4.9349C16.0785 4.89023 16.0514 4.84964 16.0173 4.81551C15.9831 4.78138 15.9425 4.75438 15.8978 4.73608C15.8531 4.71779 15.8052 4.70856 15.7569 4.70893H5.56305C5.46571 4.70893 5.37236 4.74758 5.30353 4.81636C5.23471 4.88514 5.19604 4.97843 5.19604 5.0757V8.15204C5.19604 8.24931 5.23471 8.3426 5.30353 8.41138C5.37236 8.48017 5.46571 8.51881 5.56305 8.51881ZM5.93008 5.43964H15.4184V7.78527H5.9443L5.93008 5.43964Z" fill="#C2874A"/>
<path d="M18.2634 11.2311H16.1239V10.0597C16.1239 9.96243 16.0853 9.86914 16.0164 9.80036C15.9476 9.73158 15.8543 9.69293 15.7569 9.69293H5.56305C5.46571 9.69293 5.37236 9.73158 5.30353 9.80036C5.23471 9.86914 5.19604 9.96243 5.19604 10.0597V13.1389C5.19604 13.2362 5.23471 13.3295 5.30353 13.3982C5.37236 13.467 5.46571 13.5057 5.56305 13.5057H15.7683C15.8656 13.5057 15.959 13.467 16.0278 13.3982C16.0966 13.3295 16.1353 13.2362 16.1353 13.1389V11.9646H18.2634C18.3116 11.9646 18.3593 11.9552 18.4039 11.9367C18.4484 11.9183 18.4889 11.8913 18.5229 11.8572C18.557 11.8232 18.5841 11.7827 18.6025 11.7382C18.621 11.6937 18.6304 11.646 18.6304 11.5979C18.6304 11.5497 18.621 11.502 18.6025 11.4575C18.5841 11.413 18.557 11.3726 18.5229 11.3385C18.4889 11.3045 18.4484 11.2775 18.4039 11.259C18.3593 11.2406 18.3116 11.2311 18.2634 11.2311ZM15.4184 12.7721H5.9443V10.4265H15.4184V12.7721Z" fill="#C2874A"/>
</svg>
