<svg width="36" height="36" viewBox="0 0 36 36" fill="none" xmlns="http://www.w3.org/2000/svg">
<path d="M17.9998 25.1999C21.9763 25.1999 25.1998 21.9764 25.1998 17.9999C25.1998 14.0235 21.9763 10.7999 17.9998 10.7999C14.0234 10.7999 10.7998 14.0235 10.7998 17.9999C10.7998 21.9764 14.0234 25.1999 17.9998 25.1999Z" fill="#191E19"/>
<path d="M19.8 3.7242V0H16.2V3.7242C13.0325 4.12863 10.0889 5.57311 7.83103 7.83103C5.57311 10.0889 4.12863 13.0325 3.7242 16.2H0V19.8H3.7242C4.12803 22.9677 5.57233 25.9116 7.83035 28.1696C10.0884 30.4277 13.0323 31.872 16.2 32.2758V36H19.8V32.2758C22.9678 31.8723 25.9119 30.4281 28.17 28.17C30.4281 25.9119 31.8723 22.9678 32.2758 19.8H36V16.2H32.2758C31.872 13.0323 30.4277 10.0884 28.1696 7.83035C25.9116 5.57233 22.9677 4.12803 19.8 3.7242ZM18 28.8C12.0438 28.8 7.2 23.9562 7.2 18C7.2 12.0438 12.0438 7.2 18 7.2C23.9562 7.2 28.8 12.0438 28.8 18C28.8 23.9562 23.9562 28.8 18 28.8Z" fill="#191E19"/>
</svg>
