<svg width="17" height="17" viewBox="0 0 17 17" fill="none" xmlns="http://www.w3.org/2000/svg">
<path d="M13.9496 4.04876C12.8044 2.90439 11.2976 2.19225 9.68587 2.03367C8.07417 1.87509 6.45732 2.27989 5.1108 3.17909C3.76427 4.07828 2.77139 5.41625 2.30134 6.965C1.83129 8.51376 1.91314 10.1775 2.53295 11.6727C3.15276 13.1679 4.27217 14.4021 5.70047 15.1649C7.12876 15.9278 8.77754 16.1721 10.3659 15.8563C11.9543 15.5405 13.3839 14.6841 14.4112 13.433C15.4386 12.1819 16 10.6135 16 8.99509C16.0026 8.07607 15.8227 7.16566 15.4707 6.3166C15.1188 5.46754 14.6017 4.69671 13.9496 4.04876ZM9.24677 15.4949V14.8242C9.24677 14.7594 9.22102 14.6973 9.17517 14.6514C9.12932 14.6056 9.06713 14.5799 9.00229 14.5799C8.93745 14.5799 8.87527 14.6056 8.82942 14.6514C8.78357 14.6973 8.75781 14.7594 8.75781 14.8242V15.4949C7.11804 15.4312 5.56268 14.7517 4.40232 13.592C3.24195 12.4324 2.56198 10.8781 2.49818 9.23941H3.16705C3.23189 9.23941 3.29407 9.21367 3.33992 9.16785C3.38577 9.12203 3.41153 9.05989 3.41153 8.99509C3.41153 8.93029 3.38577 8.86815 3.33992 8.82233C3.29407 8.77651 3.23189 8.75077 3.16705 8.75077H2.49818C2.56198 7.11208 3.24195 5.55774 4.40232 4.39814C5.56268 3.23853 7.11804 2.559 8.75781 2.49525V3.15676C8.75781 3.22155 8.78357 3.2837 8.82942 3.32952C8.87527 3.37534 8.93745 3.40108 9.00229 3.40108C9.06713 3.40108 9.12932 3.37534 9.17517 3.32952C9.22102 3.2837 9.24677 3.22155 9.24677 3.15676V2.48603C10.8881 2.54993 12.4447 3.23075 13.6053 4.39229C14.7659 5.55384 15.4449 7.11046 15.5064 8.75077H14.8352C14.7704 8.75077 14.7082 8.77651 14.6624 8.82233C14.6165 8.86815 14.5908 8.93029 14.5908 8.99509C14.5908 9.05989 14.6165 9.12203 14.6624 9.16785C14.7082 9.21367 14.7704 9.23941 14.8352 9.23941H15.5064C15.4426 10.8781 14.7626 12.4324 13.6023 13.592C12.4419 14.7517 10.8865 15.4312 9.24677 15.4949Z" fill="#C2874A"/>
<path d="M9.00225 3.56238C7.92697 3.56192 6.87571 3.88016 5.98143 4.47683C5.08714 5.0735 4.39 5.92181 3.97819 6.91446C3.56638 7.90711 3.4584 8.99951 3.6679 10.0535C3.8774 11.1075 4.39496 12.0757 5.15513 12.8357C5.91531 13.5957 6.88396 14.1134 7.93855 14.3232C8.99314 14.533 10.0863 14.4255 11.0798 14.0144C12.0733 13.6033 12.9224 12.907 13.5198 12.0135C14.1173 11.1201 14.4362 10.0696 14.4362 8.99505C14.4343 7.55517 13.8613 6.17476 12.8427 5.1564C11.8241 4.13804 10.4431 3.56482 9.00225 3.56238ZM9.00225 13.9345C8.02423 13.9345 7.06817 13.6446 6.25498 13.1016C5.44178 12.5586 4.80798 11.7868 4.4337 10.8839C4.05943 9.98088 3.96151 8.98726 4.15231 8.02866C4.34311 7.07006 4.81408 6.18953 5.50564 5.49842C6.19721 4.80731 7.07831 4.33665 8.03754 4.14597C8.99677 3.9553 9.99105 4.05316 10.8946 4.42719C11.7982 4.80121 12.5705 5.4346 13.1138 6.24727C13.6572 7.05993 13.9472 8.01536 13.9472 8.99274C13.946 10.3032 13.4247 11.5597 12.4977 12.4865C11.5706 13.4134 10.3136 13.9349 9.00225 13.9368V13.9345Z" fill="#C2874A"/>
<path d="M11.8162 5.83732L8.2482 8.17911C8.22045 8.19695 8.19684 8.22053 8.17899 8.24826L5.83338 11.8163C5.8027 11.8633 5.78916 11.9194 5.79505 11.9753C5.80093 12.0311 5.82587 12.0832 5.86567 12.1228C5.91184 12.1682 5.97389 12.1938 6.03865 12.1943C6.08599 12.1937 6.13227 12.1802 6.17243 12.1551L9.74044 9.81099C9.76789 9.79279 9.79141 9.76928 9.80963 9.74185L12.1529 6.17384C12.1839 6.12707 12.1978 6.07107 12.1924 6.01525C12.1869 5.95943 12.1624 5.90718 12.123 5.86729C12.0828 5.82824 12.0306 5.80401 11.9748 5.79856C11.9191 5.79312 11.8632 5.80679 11.8162 5.83732ZM9.43137 9.43068L6.89432 11.0971L8.56187 8.56173L11.0989 6.89528L9.43137 9.43068Z" fill="#C2874A"/>
<path d="M9.00245 9.40765C9.0841 9.40765 9.16393 9.38345 9.23182 9.33812C9.29972 9.29278 9.35263 9.22834 9.38387 9.15296C9.41512 9.07757 9.4233 8.99461 9.40737 8.91458C9.39144 8.83455 9.35212 8.76103 9.29438 8.70333C9.23665 8.64563 9.16308 8.60634 9.083 8.59042C9.00291 8.5745 8.9199 8.58267 8.84446 8.61389C8.76902 8.64512 8.70453 8.698 8.65917 8.76585C8.61381 8.8337 8.5896 8.91347 8.5896 8.99507C8.5896 9.10449 8.6331 9.20943 8.71052 9.28681C8.78795 9.36418 8.89295 9.40765 9.00245 9.40765Z" fill="#C2874A"/>
</svg>
