<svg width="15" height="15" viewBox="0 0 15 15" fill="none" xmlns="http://www.w3.org/2000/svg">
<path d="M7.55614 4.06177C6.82262 4.06143 6.10547 4.27849 5.4954 4.6855C4.88533 5.0925 4.40975 5.67118 4.1288 6.34832C3.84786 7.02547 3.77417 7.77067 3.91707 8.48967C4.05996 9.20867 4.41302 9.86917 4.93157 10.3876C5.45013 10.9061 6.1109 11.2592 6.8303 11.4024C7.54971 11.5455 8.29543 11.4722 8.97315 11.1918C9.65087 10.9113 10.2301 10.4363 10.6377 9.82683C11.0453 9.21735 11.2628 8.50078 11.2628 7.76773C11.2614 6.78557 10.8705 5.844 10.1757 5.14934C9.48095 4.45469 8.53894 4.0636 7.55614 4.06177ZM7.55614 11.0385C6.90882 11.0385 6.27603 10.8467 5.7378 10.4873C5.19957 10.1279 4.78008 9.61706 4.53236 9.01941C4.28464 8.42175 4.21982 7.7641 4.34611 7.12963C4.47239 6.49516 4.78411 5.91237 5.24183 5.45494C5.69956 4.99751 6.28274 4.686 6.91762 4.5598C7.55251 4.43359 8.21058 4.49837 8.80863 4.74592C9.40668 4.99348 9.91784 5.41271 10.2775 5.95058C10.6371 6.48846 10.8291 7.12083 10.8291 7.76773C10.8263 8.63436 10.4806 9.4647 9.86742 10.0775C9.25422 10.6903 8.42333 11.0358 7.55614 11.0385Z" fill="#191E19"/>
<path d="M14.0036 2.67686C13.97 2.65729 13.9319 2.64697 13.893 2.64697C13.8541 2.64697 13.816 2.65729 13.7824 2.67686C13.7167 2.72003 12.1753 3.74237 12.1753 7.15475C12.1751 7.18339 12.1806 7.21179 12.1914 7.23829C12.2023 7.2648 12.2183 7.28888 12.2386 7.30913C12.2588 7.32938 12.2829 7.3454 12.3095 7.35625C12.336 7.3671 12.3644 7.37258 12.3931 7.37235H13.6822V11.4876C13.6822 11.5453 13.7051 11.6006 13.746 11.6415C13.7868 11.6823 13.8422 11.7052 13.8999 11.7052C13.9577 11.7052 14.013 11.6823 14.0539 11.6415C14.0947 11.6006 14.1176 11.5453 14.1176 11.4876V2.86682C14.1178 2.82777 14.1072 2.78944 14.0871 2.75595C14.067 2.72247 14.0381 2.69512 14.0036 2.67686ZM12.6212 6.9458C12.6523 5.4192 13.0186 4.45213 13.3262 3.90297C13.4304 3.71493 13.5525 3.53738 13.6908 3.3728V6.9458H12.6212Z" fill="#191E19"/>
<path d="M3.17907 2.6509C3.12162 2.65089 3.0665 2.67358 3.02572 2.71402C2.98493 2.75445 2.96179 2.80935 2.96134 2.86676V5.58666C2.96157 5.5961 2.9599 5.60549 2.95645 5.61428C2.95299 5.62307 2.94781 5.63108 2.9412 5.63784C2.9346 5.6446 2.92671 5.64997 2.918 5.65364C2.90929 5.6573 2.89994 5.65919 2.89049 5.65919H2.35306V2.86676C2.34822 2.81262 2.32328 2.76225 2.28314 2.72557C2.24301 2.68888 2.19059 2.66854 2.13619 2.66854C2.0818 2.66854 2.02938 2.68888 1.98924 2.72557C1.94911 2.76225 1.92417 2.81262 1.91932 2.86676V5.66264H1.38881C1.37936 5.66264 1.37001 5.66076 1.3613 5.65709C1.35259 5.65342 1.3447 5.64805 1.33809 5.6413C1.33149 5.63454 1.32631 5.62653 1.32285 5.61774C1.3194 5.60894 1.31773 5.59955 1.31796 5.59011V2.86676C1.31796 2.80905 1.29503 2.75371 1.25419 2.7129C1.21336 2.67209 1.15798 2.64917 1.10023 2.64917C1.04248 2.64917 0.987104 2.67209 0.946271 2.7129C0.905438 2.75371 0.882497 2.80905 0.882497 2.86676V5.58666C0.880884 5.65411 0.892788 5.72121 0.91751 5.784C0.942232 5.84679 0.979271 5.90401 1.02645 5.95228C1.07363 6.00056 1.12999 6.03891 1.19222 6.06509C1.25445 6.09127 1.32129 6.10475 1.38881 6.10473H1.92624V11.4875C1.92355 11.5176 1.92715 11.5479 1.93683 11.5766C1.94651 11.6052 1.96204 11.6315 1.98244 11.6537C2.00284 11.676 2.02766 11.6938 2.05532 11.706C2.08298 11.7182 2.11288 11.7245 2.14311 11.7245C2.17333 11.7245 2.20323 11.7182 2.23089 11.706C2.25855 11.6938 2.28337 11.676 2.30377 11.6537C2.32417 11.6315 2.33971 11.6052 2.34938 11.5766C2.35906 11.5479 2.36267 11.5176 2.35998 11.4875V6.10473H2.8974C2.96434 6.10384 3.03043 6.08969 3.09186 6.0631C3.15329 6.03651 3.20883 5.99801 3.25527 5.94983C3.30172 5.90165 3.33814 5.84475 3.36243 5.78241C3.38673 5.72007 3.39841 5.65354 3.3968 5.58666V2.86676C3.3968 2.83827 3.39116 2.81006 3.3802 2.78375C3.36923 2.75745 3.35317 2.73358 3.33293 2.71351C3.31269 2.69344 3.28867 2.67758 3.26226 2.66683C3.23585 2.65608 3.20758 2.65067 3.17907 2.6509Z" fill="#191E19"/>
</svg>
