<svg width="17" height="17" viewBox="0 0 17 17" fill="none" xmlns="http://www.w3.org/2000/svg">
<path d="M8.56369 4.60355C7.73236 4.60316 6.91959 4.84916 6.22818 5.31044C5.53677 5.77171 4.99778 6.42754 4.67937 7.19498C4.36097 7.96241 4.27746 8.80697 4.43941 9.62184C4.60135 10.4367 5.00148 11.1853 5.58918 11.7729C6.17688 12.3604 6.92575 12.7607 7.74107 12.9229C8.5564 13.0851 9.40155 13.002 10.1696 12.6842C10.9377 12.3664 11.5942 11.828 12.0561 11.1373C12.518 10.4465 12.7646 9.63442 12.7646 8.80364C12.763 7.69052 12.32 6.62341 11.5326 5.83613C10.7451 5.04885 9.67753 4.60562 8.56369 4.60355ZM8.56369 12.5105C7.83005 12.5105 7.1129 12.2931 6.5029 11.8858C5.89291 11.4785 5.41748 10.8995 5.13673 10.2222C4.85598 9.54486 4.78253 8.79953 4.92565 8.08046C5.06878 7.3614 5.42205 6.70089 5.94081 6.18248C6.45956 5.66406 7.1205 5.31101 7.84004 5.16798C8.55957 5.02495 9.30539 5.09836 9.98318 5.37892C10.661 5.65949 11.2403 6.13461 11.6479 6.7442C12.0554 7.3538 12.273 8.07049 12.273 8.80364C12.2699 9.78581 11.8781 10.7269 11.1831 11.4214C10.4882 12.1159 9.5465 12.5074 8.56369 12.5105Z" fill="#C2874A"/>
<path d="M15.8706 3.03387C15.8326 3.01169 15.7893 3 15.7453 3C15.7012 3 15.658 3.01169 15.62 3.03387C15.5455 3.0828 13.7986 4.24145 13.7986 8.10882C13.7983 8.14128 13.8045 8.17346 13.8168 8.2035C13.8292 8.23353 13.8473 8.26082 13.8703 8.28377C13.8933 8.30673 13.9206 8.32488 13.9506 8.33718C13.9807 8.34948 14.0129 8.35568 14.0454 8.35542H15.5064V13.0194C15.5064 13.0848 15.5324 13.1475 15.5786 13.1937C15.6249 13.24 15.6877 13.266 15.7531 13.266C15.8186 13.266 15.8813 13.24 15.9276 13.1937C15.9739 13.1475 15.9999 13.0848 15.9999 13.0194V3.24916C16 3.20491 15.9881 3.16146 15.9653 3.12351C15.9425 3.08557 15.9098 3.05457 15.8706 3.03387ZM14.3039 7.872C14.3391 6.14186 14.7543 5.04584 15.1029 4.42346C15.221 4.21035 15.3594 4.00913 15.5162 3.82261V7.872H14.3039Z" fill="#C2874A"/>
<path d="M3.60295 3.00449C3.53784 3.00449 3.47537 3.0302 3.42915 3.07603C3.38292 3.12185 3.3567 3.18407 3.35618 3.24914V6.33168C3.35644 6.34238 3.35456 6.35303 3.35064 6.36299C3.34672 6.37296 3.34085 6.38203 3.33337 6.38969C3.32588 6.39735 3.31694 6.40344 3.30707 6.40759C3.2972 6.41175 3.2866 6.41389 3.27588 6.41388H2.66681V3.24914C2.66132 3.18778 2.63305 3.13069 2.58756 3.08911C2.54208 3.04754 2.48266 3.02448 2.42102 3.02448C2.35938 3.02448 2.29996 3.04754 2.25448 3.08911C2.20899 3.13069 2.18072 3.18778 2.17523 3.24914V6.4178H1.57399C1.56328 6.4178 1.55267 6.41566 1.5428 6.41151C1.53293 6.40735 1.52399 6.40127 1.51651 6.39361C1.50902 6.38595 1.50315 6.37687 1.49923 6.36691C1.49532 6.35694 1.49343 6.3463 1.49369 6.3356V3.24914C1.49369 3.18373 1.4677 3.12101 1.42142 3.07476C1.37514 3.02851 1.31238 3.00253 1.24693 3.00253C1.18148 3.00253 1.11872 3.02851 1.07244 3.07476C1.02616 3.12101 1.00016 3.18373 1.00016 3.24914V6.33168C0.998336 6.40814 1.01183 6.48418 1.03984 6.55534C1.06786 6.62651 1.10984 6.69135 1.16331 6.74606C1.21678 6.80077 1.28065 6.84424 1.35118 6.87391C1.42171 6.90358 1.49747 6.91886 1.57399 6.91884H2.18307V13.0193C2.18002 13.0534 2.18411 13.0878 2.19508 13.1202C2.20604 13.1527 2.22364 13.1825 2.24677 13.2077C2.26989 13.233 2.29802 13.2532 2.32936 13.267C2.36071 13.2808 2.3946 13.2879 2.42885 13.2879C2.46311 13.2879 2.49699 13.2808 2.52834 13.267C2.55969 13.2532 2.58782 13.233 2.61094 13.2077C2.63406 13.1825 2.65167 13.1527 2.66263 13.1202C2.6736 13.0878 2.67769 13.0534 2.67464 13.0193V6.91884H3.28372C3.35958 6.91782 3.43449 6.90178 3.50411 6.87165C3.57373 6.84152 3.63667 6.79789 3.68931 6.74328C3.74195 6.68868 3.78323 6.62419 3.81076 6.55354C3.83829 6.48289 3.85153 6.40748 3.84971 6.33168V3.24914C3.84971 3.21684 3.84331 3.18487 3.83089 3.15506C3.81846 3.12525 3.80026 3.09819 3.77732 3.07545C3.75438 3.05271 3.72716 3.03473 3.69723 3.02255C3.6673 3.01037 3.63526 3.00423 3.60295 3.00449Z" fill="#C2874A"/>
</svg>
