<svg width="73" height="70" viewBox="0 0 73 70" fill="none" xmlns="http://www.w3.org/2000/svg">
<path d="M60.2295 3H13.2681C12.9318 3 12.6092 3.13349 12.3714 3.37116C12.1336 3.60883 12 3.93118 12 4.26729V64.8267C12 65.1628 12.1336 65.4851 12.3714 65.7227C12.6092 65.9604 12.9318 66.0939 13.2681 66.0939H60.2295C60.3956 66.0939 60.56 66.0611 60.7133 65.9973C60.8666 65.9335 61.0058 65.84 61.1227 65.7222C61.2397 65.6044 61.3321 65.4646 61.3948 65.3109C61.4574 65.1572 61.4889 64.9926 61.4876 64.8267V4.26729C61.4889 4.10134 61.4574 3.93678 61.3948 3.78308C61.3321 3.62938 61.2397 3.48959 61.1227 3.37177C61.0058 3.25396 60.8666 3.16047 60.7133 3.09666C60.56 3.03285 60.3956 2.99999 60.2295 3ZM58.9614 5.56478V14.1644L50.3562 5.56478H58.9614ZM14.5262 5.56478H46.8034L58.9815 17.735V51.4394L46.8034 63.5694H14.5262V5.56478ZM58.9614 63.6096H50.3562L58.9614 55.01V63.6096Z" fill="#C2874A"/>
<path d="M50.0138 34.5424C50.0138 31.9185 49.2352 29.3536 47.7765 27.1719C46.3178 24.9902 44.2446 23.2898 41.8188 22.2857C39.3931 21.2816 36.7239 21.0189 34.1488 21.5308C31.5736 22.0427 29.2082 23.3062 27.3516 25.1616C25.4951 27.0169 24.2308 29.3808 23.7185 31.9542C23.2063 34.5277 23.4692 37.1952 24.474 39.6193C25.4787 42.0434 27.1802 44.1154 29.3633 45.5731C31.5464 47.0308 34.1131 47.8089 36.7386 47.8089C40.2594 47.8089 43.636 46.4112 46.1256 43.9233C48.6152 41.4353 50.0138 38.0609 50.0138 34.5424ZM36.7386 45.0932C35.8026 45.0932 34.5949 43.4136 33.84 40.5169C34.8031 40.6149 35.7706 40.6619 36.7386 40.6577C37.7033 40.6622 38.6675 40.6152 39.6272 40.5169C38.8925 43.4136 37.6847 45.0932 36.7386 45.0932ZM36.7386 38.1432C35.6081 38.1437 34.4786 38.0731 33.3569 37.9319C33.0752 35.6844 33.0752 33.4105 33.3569 31.1629C35.6026 30.8815 37.8747 30.8815 40.1203 31.1629C40.4021 33.4105 40.4021 35.6844 40.1203 37.9319C38.9986 38.0731 37.8692 38.1437 36.7386 38.1432ZM26.1809 34.5424C26.1809 33.607 27.8617 32.4101 30.7603 31.6558C30.6697 32.5912 30.6194 33.5668 30.6194 34.5424C30.6194 35.518 30.6697 36.5037 30.7603 37.4391C27.8717 36.6848 26.1909 35.4879 26.1909 34.5424H26.1809ZM36.7386 24.0016C37.6746 24.0016 38.8824 25.6813 39.6272 28.578C38.6677 28.4763 37.7035 28.4259 36.7386 28.4271C35.7704 28.4262 34.8029 28.4765 33.84 28.578C34.6049 25.6813 35.8127 24.0016 36.7386 24.0016ZM42.717 31.6558C45.6055 32.4101 47.2964 33.607 47.2964 34.5424C47.2964 35.4778 45.6055 36.6848 42.717 37.4391C42.8076 36.5037 42.8579 35.5281 42.8579 34.5424C42.8579 33.5567 42.7774 32.5912 42.7774 31.6558H42.717ZM46.6724 30.4689C46.3302 30.2879 45.9679 30.1068 45.5753 29.9459C44.5227 29.5081 43.4308 29.1714 42.3144 28.9401C42.0798 27.8252 41.7428 26.7344 41.308 25.6813C41.1568 25.3036 40.9855 24.9342 40.7947 24.5749C42.1169 25.1201 43.318 25.9216 44.3286 26.9333C45.3392 27.9449 46.1392 29.1466 46.6825 30.4689H46.6724ZM32.7128 24.6151C32.522 24.9745 32.3506 25.3438 32.1995 25.7215C31.7646 26.7746 31.4277 27.8655 31.193 28.9803C30.0766 29.2116 28.9848 29.5484 27.9321 29.9861C27.5396 30.147 27.1773 30.3281 26.8351 30.5091C27.3758 29.1869 28.1737 27.985 29.1827 26.9733C30.1916 25.9615 31.3915 25.16 32.7128 24.6151ZM26.8653 38.626C27.2075 38.807 27.5698 38.9881 27.9623 39.149C29.0166 39.5821 30.108 39.9188 31.2232 40.1548C31.4579 41.2696 31.7948 42.3605 32.2297 43.4136C32.3808 43.7913 32.5522 44.1606 32.743 44.52C31.4124 43.9807 30.2028 43.1816 29.1849 42.1696C28.1671 41.1576 27.3614 39.9529 26.815 38.626H26.8653ZM40.8852 44.4797C41.076 44.1204 41.2474 43.751 41.3985 43.3733C41.8334 42.3202 42.1703 41.2294 42.405 40.1145C43.5202 39.8786 44.6116 39.5419 45.6659 39.1087C46.0584 38.9478 46.4208 38.7668 46.763 38.5857C46.2151 39.9118 45.4089 41.1157 44.3912 42.1276C43.3735 43.1394 42.1646 43.939 40.8349 44.4797H40.8852Z" fill="#C2874A"/>
</svg>
