<svg width="15" height="15" viewBox="0 0 15 15" fill="none" xmlns="http://www.w3.org/2000/svg">
<path d="M13.1485 8.2247C12.5516 7.98259 11.9397 7.79705 11.3185 7.66977C10.9921 7.6004 10.6692 7.50967 10.3511 7.39801C9.95899 7.06342 9.55284 6.75319 9.13423 6.46854C8.71379 6.15864 8.24877 5.94565 7.76312 5.84052C7.39772 5.77421 7.02969 5.73076 6.66052 5.71035C5.69805 5.63856 4.73192 5.69293 3.77928 5.8725L3.50506 5.93187L3.25749 5.98668C3.22899 5.992 3.20174 6.00444 3.17752 6.02321L1.50743 7.28382C0.690477 7.43226 0.51718 9.12448 0.498137 9.33915C0.454338 9.7799 0.431486 10.2526 0.688569 10.6797C0.774248 10.8266 0.89108 10.9434 1.027 11.0181C1.16291 11.0928 1.31299 11.1226 1.46172 11.1045H1.88258C1.94891 11.4588 2.11384 11.7754 2.35025 12.0023C2.58665 12.2292 2.88043 12.3529 3.18323 12.3529C3.48603 12.3529 3.77981 12.2292 4.01621 12.0023C4.25261 11.7754 4.41755 11.4588 4.48388 11.1045H9.99308C10.0602 11.4576 10.2254 11.773 10.4615 11.9989C10.6976 12.2248 10.9907 12.3478 11.2928 12.3478C11.5948 12.3478 11.8879 12.2248 12.1241 11.9989C12.3602 11.773 12.5254 11.4576 12.5925 11.1045H13.6608C13.8665 11.1045 13.9122 10.8327 13.935 10.7025C14.0264 10.1727 14.0626 8.68829 13.1485 8.2247ZM7.69837 6.3475C8.1315 6.44562 8.54591 6.63837 8.92094 6.91614C9.19707 7.10341 9.477 7.30894 9.75694 7.53274H6.22443V6.20591C6.35963 6.20591 6.49865 6.20591 6.63957 6.22418C6.99377 6.25387 7.34988 6.29498 7.69837 6.3475ZM3.37366 6.48453L3.58504 6.43657L3.85165 6.37948C4.49185 6.25436 5.1397 6.19401 5.78834 6.19906V7.53274H1.9797L3.37366 6.48453ZM3.18323 11.8489C3.00734 11.8489 2.8354 11.7864 2.68915 11.6692C2.5429 11.552 2.42892 11.3855 2.36161 11.1906C2.2943 10.9957 2.27669 10.7813 2.311 10.5744C2.34531 10.3675 2.43001 10.1775 2.55439 10.0283C2.67876 9.87917 2.83722 9.7776 3.00973 9.73645C3.18224 9.6953 3.36106 9.71642 3.52356 9.79714C3.68606 9.87786 3.82495 10.0146 3.92267 10.1899C4.02039 10.3653 4.07255 10.5715 4.07255 10.7824C4.0733 10.923 4.05093 11.0623 4.00672 11.1925C3.9625 11.3227 3.89731 11.4411 3.81488 11.541C3.73245 11.6409 3.6344 11.7203 3.52634 11.7747C3.41828 11.8292 3.30233 11.8575 3.18513 11.8581L3.18323 11.8489ZM11.7774 11.6754C11.6333 11.7891 11.4644 11.8495 11.2918 11.8489C11.0776 11.8493 10.8705 11.7571 10.7083 11.5893C10.5462 11.4215 10.4398 11.1893 10.4088 10.9352C10.3777 10.681 10.424 10.422 10.5392 10.2054C10.6544 9.98885 10.8308 9.82929 11.036 9.75592C11.2413 9.68256 11.4617 9.70029 11.657 9.80589C11.8522 9.91149 12.0092 10.0979 12.0992 10.331C12.1893 10.564 12.2063 10.8282 12.1472 11.0751C12.0881 11.322 11.9568 11.5351 11.7774 11.6754ZM13.5104 10.5746H12.6058C12.5528 10.2027 12.3918 9.8653 12.1514 9.62202C11.9109 9.37873 11.6064 9.24528 11.2918 9.24528C10.9772 9.24528 10.6727 9.37873 10.4323 9.62202C10.1918 9.8653 10.0308 10.2027 9.97784 10.5746H4.49721C4.44309 10.2041 4.28176 9.8684 4.0416 9.62646C3.80144 9.38453 3.49783 9.25189 3.18418 9.25189C2.87053 9.25189 2.56692 9.38453 2.32676 9.62646C2.0866 9.8684 1.92527 10.2041 1.87115 10.5746H1.44839C1.37177 10.5898 1.29313 10.5786 1.22165 10.5422C1.15016 10.5058 1.08879 10.4457 1.04468 10.3691C0.877096 10.0859 0.892331 9.77306 0.932322 9.39397C0.969663 8.92666 1.08977 8.4743 1.28462 8.06714H10.7681L11.2347 8.17446C11.8272 8.29783 12.4115 8.4726 12.9829 8.69743C13.0876 8.75444 13.1814 8.83653 13.2587 8.93863C13.336 9.04074 13.3951 9.16072 13.4323 9.2912C13.5533 9.70594 13.5835 10.151 13.5199 10.5838L13.5104 10.5746Z" fill="#191E19"/>
<path d="M13.8608 4.66894L7.35376 1.78006C7.30507 1.75951 7.252 1.75951 7.20332 1.78006L0.694338 4.68036C0.640297 4.70459 0.596497 4.75356 0.572569 4.81652C0.548641 4.87948 0.546549 4.95126 0.566751 5.01606C0.586954 5.08087 0.627793 5.1334 0.680291 5.16209C0.73279 5.19079 0.792646 5.1933 0.846687 5.16907L7.27759 2.3053L13.7104 5.15765C13.7341 5.16848 13.7593 5.1739 13.7847 5.17363C13.8358 5.17399 13.8853 5.15274 13.9246 5.1136C13.9639 5.07446 13.9905 5.01996 13.9996 4.95967C14.0087 4.89938 13.9997 4.83717 13.9744 4.78399C13.949 4.73082 13.9088 4.69007 13.8608 4.66894Z" fill="#191E19"/>
</svg>
