<svg width="17" height="17" viewBox="0 0 17 17" fill="none" xmlns="http://www.w3.org/2000/svg">
<path d="M14.9017 9.32139C14.2251 9.047 13.5316 8.83672 12.8276 8.69247C12.4577 8.61385 12.0917 8.51103 11.7312 8.38447C11.2869 8.00527 10.8266 7.65368 10.3521 7.33107C9.87562 6.97986 9.34861 6.73847 8.7982 6.61932C8.38408 6.54417 7.96698 6.49492 7.54859 6.47179C6.45779 6.39043 5.36284 6.45205 4.28319 6.65556L3.9724 6.72285L3.69183 6.78497C3.65952 6.791 3.62864 6.8051 3.60118 6.82637L1.70842 8.25506C0.78254 8.42329 0.586137 10.3411 0.564555 10.5844C0.514916 11.0839 0.489017 11.6197 0.780378 12.1037C0.877481 12.2702 1.00989 12.4026 1.16393 12.4872C1.31797 12.5719 1.48805 12.6057 1.65662 12.5851H2.13359C2.20876 12.9867 2.39569 13.3455 2.66361 13.6027C2.93153 13.8599 3.26449 14 3.60766 14C3.95083 14 4.28378 13.8599 4.55171 13.6027C4.81963 13.3455 5.00656 12.9867 5.08173 12.5851H11.3255C11.4016 12.9854 11.5887 13.3428 11.8563 13.5988C12.124 13.8548 12.4561 13.9943 12.7985 13.9943C13.1408 13.9943 13.473 13.8548 13.7406 13.5988C14.0082 13.3428 14.1954 12.9854 14.2715 12.5851H15.4822C15.7153 12.5851 15.7671 12.2771 15.793 12.1296C15.8966 11.5291 15.9376 9.84679 14.9017 9.32139ZM8.72482 7.1939C9.2157 7.3051 9.68537 7.52355 10.1104 7.83836C10.4233 8.05059 10.7406 8.28353 11.0579 8.53717H7.05435V7.03343C7.20759 7.03343 7.36514 7.03343 7.52484 7.05414C7.92627 7.08778 8.32986 7.13437 8.72482 7.1939ZM3.82348 7.34919L4.06304 7.29484L4.3652 7.23014C5.09077 7.08833 5.82499 7.01994 6.56011 7.02567V8.53717H2.24366L3.82348 7.34919ZM3.60766 13.4289C3.40832 13.4289 3.21345 13.358 3.0477 13.2252C2.88196 13.0923 2.75277 12.9036 2.67649 12.6827C2.6002 12.4619 2.58024 12.2188 2.61913 11.9844C2.65802 11.7499 2.75402 11.5345 2.89497 11.3655C3.03593 11.1965 3.21552 11.0813 3.41103 11.0347C3.60654 10.9881 3.8092 11.012 3.99337 11.1035C4.17753 11.195 4.33494 11.3499 4.44569 11.5487C4.55644 11.7474 4.61556 11.9811 4.61556 12.2202C4.61641 12.3795 4.59105 12.5374 4.54094 12.6849C4.49084 12.8324 4.41695 12.9666 4.32353 13.0799C4.23011 13.1931 4.11899 13.2831 3.99652 13.3448C3.87405 13.4064 3.74264 13.4385 3.60982 13.4392L3.60766 13.4289ZM13.3477 13.2322C13.1844 13.361 12.993 13.4294 12.7974 13.4289C12.5546 13.4293 12.3199 13.3248 12.1361 13.1346C11.9523 12.9445 11.8318 12.6813 11.7966 12.3932C11.7614 12.1052 11.8139 11.8116 11.9444 11.5662C12.075 11.3208 12.2749 11.1399 12.5075 11.0568C12.7401 10.9736 12.9899 10.9937 13.2112 11.1134C13.4325 11.2331 13.6105 11.4443 13.7125 11.7085C13.8145 11.9726 13.8338 12.272 13.7668 12.5518C13.6998 12.8316 13.5511 13.0731 13.3477 13.2322ZM15.3117 11.9846H14.2866C14.2265 11.5632 14.0441 11.1807 13.7716 10.905C13.499 10.6293 13.154 10.478 12.7974 10.478C12.4408 10.478 12.0958 10.6293 11.8232 10.905C11.5507 11.1807 11.3683 11.5632 11.3082 11.9846H5.09684C5.0355 11.5648 4.85266 11.1842 4.58048 10.9101C4.3083 10.6359 3.96421 10.4855 3.60874 10.4855C3.25327 10.4855 2.90918 10.6359 2.637 10.9101C2.36482 11.1842 2.18197 11.5648 2.12064 11.9846H1.64151C1.55467 12.0019 1.46555 11.9891 1.38453 11.9478C1.30352 11.9066 1.23396 11.8386 1.18397 11.7517C0.994041 11.4308 1.01131 11.0762 1.05663 10.6466C1.09895 10.1169 1.23508 9.60427 1.4559 9.14282H12.2039L12.7327 9.26445C13.4042 9.40427 14.0663 9.60235 14.7139 9.85715C14.8326 9.92176 14.939 10.0148 15.0265 10.1305C15.1141 10.2462 15.1811 10.3822 15.2232 10.5301C15.3604 11.0001 15.3946 11.5046 15.3225 11.995L15.3117 11.9846Z" fill="#C2874A"/>
<path d="M15.7089 5.29153L8.33426 2.01746C8.27908 1.99418 8.21893 1.99418 8.16376 2.01746L0.786916 5.30447C0.72567 5.33193 0.676029 5.38744 0.648911 5.45879C0.621793 5.53014 0.619422 5.61149 0.642318 5.68494C0.665214 5.75839 0.711499 5.81792 0.770997 5.85044C0.830495 5.88296 0.898332 5.8858 0.959579 5.85834L8.24793 2.61274L15.5384 5.8454C15.5653 5.85767 15.5939 5.86381 15.6226 5.86352C15.6805 5.86393 15.7367 5.83983 15.7812 5.79548C15.8258 5.75112 15.8559 5.68935 15.8662 5.62102C15.8765 5.55269 15.8664 5.48219 15.8376 5.42192C15.8089 5.36166 15.7633 5.31548 15.7089 5.29153Z" fill="#C2874A"/>
</svg>
