<svg width="73" height="70" viewBox="0 0 73 70" fill="none" xmlns="http://www.w3.org/2000/svg">
<path d="M68.0699 12H6.23022C5.90395 12 5.59104 12.1295 5.36033 12.3601C5.12962 12.5906 5 12.9033 5 13.2294V56.2376C5 56.5637 5.12962 56.8764 5.36033 57.107C5.59104 57.3375 5.90395 57.467 6.23022 57.467H68.0699C68.2314 57.467 68.3914 57.4352 68.5406 57.3735C68.6899 57.3117 68.8255 57.2211 68.9397 57.107C69.054 56.9928 69.1446 56.8573 69.2064 56.7081C69.2682 56.5589 69.3001 56.3991 69.3001 56.2376V13.187C69.2891 12.8684 69.1546 12.5664 68.9251 12.345C68.6955 12.1235 68.3889 11.9998 68.0699 12ZM66.8396 14.4588V20.3833H7.44984V14.4588H66.8396ZM66.8396 29.2965H7.44984V22.7997H66.8396V29.2965ZM7.44984 54.9658V31.7554H66.8396V54.9658H7.44984Z" fill="#C2874A"/>
<path d="M55.8523 39.7577C54.6673 39.7462 53.5103 40.118 52.5541 40.8175C51.7288 40.2056 50.7496 39.8347 49.7258 39.7464C48.7019 39.6581 47.6737 39.8558 46.7557 40.3174C45.8377 40.7791 45.0661 41.4865 44.5269 42.3608C43.9878 43.2351 43.7023 44.2419 43.7023 45.2688C43.7023 46.2958 43.9878 47.3026 44.5269 48.1769C45.0661 49.0512 45.8377 49.7586 46.7557 50.2202C47.6737 50.6818 48.7019 50.8795 49.7258 50.7912C50.7496 50.7029 51.7288 50.3321 52.5541 49.7201C53.5103 50.4197 54.6673 50.7915 55.8523 50.78C56.5807 50.78 57.3019 50.6366 57.9749 50.358C58.6478 50.0795 59.2593 49.6712 59.7743 49.1565C60.2894 48.6418 60.6979 48.0307 60.9767 47.3582C61.2554 46.6857 61.3989 45.9649 61.3989 45.237C61.3989 44.5091 61.2554 43.7884 60.9767 43.1159C60.6979 42.4434 60.2894 41.8323 59.7743 41.3176C59.2593 40.8029 58.6478 40.3946 57.9749 40.116C57.3019 39.8375 56.5807 39.6941 55.8523 39.6941V39.7577ZM46.1591 45.3006C46.1591 44.4827 46.4842 43.6982 47.063 43.1198C47.6417 42.5414 48.4267 42.2165 49.2452 42.2165C49.8491 42.2122 50.4402 42.3895 50.942 42.7252C50.5233 43.5191 50.3049 44.4032 50.3057 45.3006C50.3074 46.1978 50.5257 47.0812 50.942 47.876C50.4768 48.1821 49.9373 48.3566 49.3809 48.3811C48.8244 48.4055 48.2717 48.279 47.7813 48.015C47.291 47.751 46.8813 47.3593 46.5957 46.8814C46.31 46.4035 46.1592 45.8573 46.1591 45.3006ZM55.8523 48.3848C55.2492 48.3839 54.6594 48.2071 54.1554 47.876C54.5718 47.0812 54.7901 46.1978 54.7918 45.3006C54.7927 44.4032 54.5742 43.5191 54.1554 42.7252C54.6572 42.3895 55.2484 42.2122 55.8523 42.2165C56.6708 42.2165 57.4558 42.5414 58.0345 43.1198C58.6133 43.6982 58.9384 44.4827 58.9384 45.3006C58.9384 46.1186 58.6133 46.903 58.0345 47.4814C57.4558 48.0598 56.6708 48.3848 55.8523 48.3848Z" fill="#C2874A"/>
</svg>
