<svg width="22" height="15" viewBox="0 0 22 15" fill="none" xmlns="http://www.w3.org/2000/svg">
<path d="M10.9877 2.32947C9.78007 2.32891 8.59935 2.68628 7.59493 3.35638C6.59052 4.02648 5.80752 4.97921 5.34497 6.09406C4.88242 7.20892 4.76111 8.43582 4.99637 9.61958C5.23163 10.8033 5.8129 11.8908 6.66665 12.7444C7.52041 13.598 8.6083 14.1794 9.79273 14.415C10.9772 14.6507 12.2049 14.53 13.3207 14.0683C14.4365 13.6066 15.3902 12.8245 16.0612 11.8211C16.7322 10.8176 17.0904 9.63787 17.0904 8.43098C17.0881 6.81394 16.4446 5.26374 15.3007 4.12005C14.1568 2.97637 12.6058 2.33248 10.9877 2.32947ZM10.9877 13.816C9.92199 13.816 8.88017 13.5002 7.99403 12.9085C7.10789 12.3167 6.41722 11.4757 6.00938 10.4917C5.60153 9.50776 5.49482 8.42501 5.70274 7.38041C5.91066 6.33582 6.42386 5.3763 7.17747 4.62319C7.93107 3.87008 8.89122 3.35721 9.93649 3.14943C10.9818 2.94164 12.0652 3.04829 13.0498 3.45587C14.0345 3.86345 14.8761 4.55366 15.4682 5.43922C16.0603 6.32478 16.3763 7.36592 16.3763 8.43098C16.3718 9.85779 15.8026 11.2249 14.793 12.2338C13.7835 13.2427 12.4155 13.8115 10.9877 13.816Z" fill="#C2874A"/>
<path d="M21.6029 0.0492016C21.5476 0.0169791 21.4848 0 21.4208 0C21.3568 0 21.294 0.0169791 21.2387 0.0492016C21.1306 0.120282 18.5928 1.80346 18.5928 7.42163C18.5924 7.46878 18.6014 7.51553 18.6193 7.55917C18.6372 7.6028 18.6636 7.64244 18.6969 7.67579C18.7303 7.70913 18.77 7.7355 18.8136 7.75337C18.8573 7.77124 18.9041 7.78025 18.9513 7.77987H21.0737V14.5552C21.0737 14.6502 21.1114 14.7414 21.1787 14.8085C21.2459 14.8757 21.3371 14.9135 21.4322 14.9135C21.5272 14.9135 21.6184 14.8757 21.6856 14.8085C21.7529 14.7414 21.7906 14.6502 21.7906 14.5552V0.361954C21.7908 0.297669 21.7735 0.234551 21.7404 0.179426C21.7073 0.124302 21.6597 0.0792702 21.6029 0.0492016ZM19.3268 7.0776C19.378 4.56421 19.9812 2.97201 20.4876 2.06788C20.6591 1.75829 20.8601 1.46597 21.0879 1.19501V7.0776H19.3268Z" fill="#C2874A"/>
<path d="M3.78132 0.00653576C3.68674 0.00653278 3.59599 0.0438856 3.52884 0.110456C3.46169 0.177026 3.42359 0.267417 3.42284 0.361936V4.83998C3.42322 4.85553 3.42049 4.87099 3.41479 4.88546C3.4091 4.89994 3.40057 4.91312 3.3897 4.92425C3.37883 4.93538 3.36584 4.94422 3.3515 4.95026C3.33716 4.95629 3.32176 4.9594 3.3062 4.95939H2.42138V0.361936C2.41341 0.272799 2.37235 0.18987 2.30627 0.129471C2.24019 0.0690713 2.15388 0.0355758 2.06433 0.0355758C1.97478 0.0355758 1.88847 0.0690713 1.82239 0.129471C1.75631 0.18987 1.71524 0.272799 1.70727 0.361936V4.96508H0.83384C0.81828 4.96509 0.802874 4.96198 0.788533 4.95594C0.774192 4.94991 0.761205 4.94107 0.750335 4.92994C0.739465 4.91881 0.730935 4.90562 0.725243 4.89115C0.719551 4.87668 0.716812 4.86121 0.717192 4.84567V0.361936C0.717192 0.266924 0.679425 0.175803 0.612197 0.10862C0.54497 0.041436 0.45379 0.00369263 0.358716 0.00369263C0.263642 0.00369263 0.172462 0.041436 0.105235 0.10862C0.038007 0.175803 0.000237966 0.266924 0.000237955 0.361936V4.83998C-0.0024179 4.95104 0.0171811 5.06151 0.0578828 5.16489C0.0985845 5.26827 0.159567 5.36247 0.23724 5.44195C0.314913 5.52143 0.407708 5.58457 0.510166 5.62768C0.612623 5.67078 0.722674 5.69297 0.83384 5.69294H1.71865V14.5552C1.71422 14.6047 1.72017 14.6547 1.7361 14.7018C1.75203 14.7489 1.7776 14.7922 1.81119 14.8289C1.84477 14.8656 1.88564 14.8949 1.93118 14.9149C1.97672 14.935 2.02594 14.9453 2.07571 14.9453C2.12547 14.9453 2.17469 14.935 2.22024 14.9149C2.26578 14.8949 2.30664 14.8656 2.34023 14.8289C2.37382 14.7922 2.39939 14.7489 2.41532 14.7018C2.43125 14.6547 2.43719 14.6047 2.43276 14.5552V5.69294H3.31758C3.42778 5.69147 3.5366 5.66817 3.63774 5.6244C3.73887 5.58062 3.83032 5.51724 3.90679 5.43792C3.98325 5.35859 4.04322 5.2649 4.08321 5.16227C4.12321 5.05963 4.14244 4.95009 4.1398 4.83998V0.361936C4.1398 0.315024 4.13051 0.268576 4.11246 0.22527C4.09441 0.181965 4.06796 0.142659 4.03463 0.10962C4.00131 0.0765801 3.96177 0.050461 3.91829 0.0327686C3.87481 0.0150762 3.82826 0.00616046 3.78132 0.00653576Z" fill="#C2874A"/>
</svg>
