<svg width="15" height="15" viewBox="0 0 15 15" fill="none" xmlns="http://www.w3.org/2000/svg">
<g clip-path="url(#clip0_200_4354)">
<path d="M1.73928 10.0937H14.183C14.2206 10.094 14.2578 10.0868 14.2926 10.0726C14.3274 10.0583 14.359 10.0373 14.3856 10.0107C14.4122 9.98417 14.4332 9.95259 14.4475 9.91782C14.4617 9.88305 14.4689 9.8458 14.4687 9.80823C14.4687 6.42441 12.0878 3.62641 8.98328 3.11461C9.014 3.01455 9.02969 2.91049 9.02984 2.80583C9.01747 2.52555 8.89735 2.26084 8.69451 2.06688C8.49167 1.87291 8.22176 1.76465 7.94101 1.76465C7.66027 1.76465 7.39036 1.87291 7.18752 2.06688C6.98468 2.26084 6.86456 2.52555 6.85219 2.80583C6.85236 2.91257 6.86804 3.01872 6.89875 3.12095C3.81534 3.64967 1.45358 6.44767 1.45358 9.80823C1.45358 9.88395 1.48368 9.95657 1.53726 10.0101C1.59084 10.0637 1.66351 10.0937 1.73928 10.0937ZM7.93996 2.29192C8.02871 2.29201 8.11594 2.31496 8.19323 2.35856C8.27052 2.40216 8.33527 2.46493 8.38121 2.54082C8.42716 2.6167 8.45275 2.70314 8.45553 2.7918C8.45831 2.88045 8.43817 2.96832 8.39707 3.04693C8.25316 3.04693 8.10714 3.03001 7.96112 3.03001C7.8151 3.03001 7.66061 3.03001 7.51247 3.04693H7.48707C7.44606 2.97247 7.42492 2.88871 7.4257 2.80372C7.42626 2.66779 7.48069 2.53761 7.57707 2.44169C7.67345 2.34577 7.80393 2.29191 7.93996 2.29192ZM7.96112 3.60315C11.1355 3.60315 13.747 6.23195 13.8867 9.52483H2.03556C2.17735 6.23195 4.78036 3.60315 7.96112 3.60315Z" fill="#191E19"/>
<path d="M14.7122 11.0752H1.16805C1.09228 11.0752 1.01961 11.1053 0.966031 11.1588C0.912453 11.2124 0.882353 11.285 0.882353 11.3607V13.6131C0.882351 13.689 0.912383 13.7618 0.965902 13.8157C1.01942 13.8696 1.09208 13.9001 1.16805 13.9007H14.7122C14.7885 13.9007 14.8617 13.8704 14.9157 13.8164C14.9697 13.7625 15 13.6894 15 13.6131V11.3607C15 11.323 14.9925 11.2857 14.9781 11.251C14.9636 11.2162 14.9423 11.1846 14.9156 11.1581C14.8888 11.1315 14.8571 11.1105 14.8222 11.0963C14.7873 11.0821 14.7499 11.0749 14.7122 11.0752ZM14.4265 13.3276H1.45586V11.6462H14.4265V13.3276Z" fill="#191E19"/>
</g>
<defs>
<clipPath id="clip0_200_4354">
<rect width="15" height="15" fill="white"/>
</clipPath>
</defs>
</svg>
