<svg width="17" height="17" viewBox="0 0 17 17" fill="none" xmlns="http://www.w3.org/2000/svg">
<path d="M8.99119 2C8.19746 2.0034 7.43728 2.34086 6.87678 2.93861C6.31629 3.53636 6.00106 4.3458 6.00001 5.19001C5.99923 5.42818 6.08276 5.65793 6.23398 5.83359C6.30623 5.90628 6.39151 5.96274 6.48473 5.9996C6.57795 6.03646 6.6772 6.05296 6.77654 6.04812C6.87615 6.05252 6.97559 6.03583 7.06908 5.999C7.16257 5.96217 7.24824 5.90595 7.32113 5.83359C7.47296 5.65802 7.55783 5.42856 7.55913 5.19001C7.55591 4.80954 7.69464 4.44323 7.94494 4.17138C8.19524 3.89954 8.53667 3.74434 8.89438 3.73981C9.24834 3.74038 9.58766 3.89019 9.83795 4.1564C10.0882 4.42261 10.2291 4.7835 10.2296 5.15998C10.2296 6.06957 9.40467 6.44714 8.45064 6.89764C7.30297 7.43181 6.00202 8.03678 6.00202 9.75299V15.7597C6.00202 15.8235 6.02582 15.8846 6.06819 15.9296C6.11055 15.9747 6.16801 16 6.22793 16H11.7726C11.8325 16 11.89 15.9747 11.9323 15.9296C11.9747 15.8846 11.9985 15.8235 11.9985 15.7597V5.23506C12.0005 5.22084 12.0005 5.20638 11.9985 5.19216C11.9982 4.7725 11.9202 4.357 11.7689 3.96942C11.6176 3.58184 11.396 3.22976 11.1167 2.93332C10.8374 2.63687 10.506 2.40186 10.1413 2.24172C9.77656 2.08158 9.38575 1.99944 8.99119 2ZM11.5366 5.11064V15.5302H6.44374V9.75943C6.44374 8.35857 7.50266 7.86515 8.62208 7.34386C9.63057 6.87619 10.6713 6.39136 10.6713 5.16642C10.6703 4.66267 10.4817 4.17987 10.1467 3.82366C9.81184 3.46746 9.35791 3.26684 8.88429 3.26571C8.64779 3.26571 8.41373 3.31643 8.19609 3.41484C7.97845 3.51326 7.7817 3.65735 7.61762 3.8385C7.2835 4.20022 7.09658 4.68722 7.09724 5.1943C7.10118 5.24286 7.09553 5.29177 7.08066 5.33787C7.06578 5.38397 7.042 5.42626 7.01085 5.46202C6.97971 5.49777 6.94187 5.5262 6.89979 5.54549C6.8577 5.56478 6.81228 5.57449 6.76646 5.57402C6.71044 5.58064 6.65386 5.56875 6.60442 5.53997C6.55497 5.51118 6.51507 5.46689 6.49013 5.41312C6.46078 5.34573 6.44432 5.27281 6.44172 5.19859C6.44134 4.48863 6.70275 3.80682 7.16983 3.29962C7.6369 2.79242 8.27237 2.50028 8.93975 2.48595C9.60712 2.47163 10.2532 2.73626 10.7391 3.223C11.225 3.70975 11.5121 4.37979 11.5386 5.08919C11.5386 5.08919 11.5366 5.10206 11.5366 5.11064Z" fill="#C2874A"/>
</svg>
