<svg width="70" height="70" viewBox="0 0 70 70" fill="none" xmlns="http://www.w3.org/2000/svg">
<g clip-path="url(#clip0_819_247)">
<path d="M68.0592 34.5975C65.9796 32.48 65.5159 29.2629 66.913 26.6437C67.9105 24.7771 67.9805 22.5575 67.0996 20.6296C66.2217 18.7046 64.495 17.2987 62.43 16.8321C59.5396 16.1758 57.4075 13.72 57.1713 10.7625C56.9992 8.65375 55.8559 6.74333 54.0738 5.6C52.2975 4.45375 50.0867 4.20583 48.0946 4.93208C45.3063 5.94416 42.1855 5.02542 40.3888 2.66875C39.1055 0.988751 37.1105 0 34.993 0C32.8784 0 30.8834 0.988751 29.6 2.66875C27.8121 5.02833 24.6913 5.94708 21.903 4.935C19.9138 4.21166 17.703 4.45958 15.9238 5.60292C14.1446 6.74625 12.9984 8.65666 12.8292 10.7654C12.59 13.7229 10.4609 16.1817 7.57045 16.835C5.50545 17.3017 3.77878 18.7075 2.90086 20.6325C2.02294 22.5575 2.09294 24.78 3.09044 26.6437C4.48753 29.26 4.02378 32.48 1.94711 34.5975C0.462527 36.1054 -0.23164 38.22 0.0687766 40.3142C0.369194 42.4083 1.63211 44.2429 3.48128 45.2725C6.07128 46.7162 7.42461 49.6767 6.81794 52.5787C6.38919 54.6496 6.94628 56.8021 8.33169 58.4004C9.72003 60.0017 11.7734 60.8621 13.8792 60.7279C16.8425 60.5442 19.5755 62.3029 20.6371 65.0708C21.3925 67.0483 23.0288 68.5562 25.0617 69.1512C27.0888 69.7462 29.2821 69.3612 30.9855 68.11C33.3742 66.3512 36.6321 66.3512 39.018 68.11C40.7213 69.3642 42.9146 69.7492 44.9417 69.1512C46.9746 68.5562 48.6109 67.0454 49.3692 65.0708C50.428 62.3029 53.1638 60.5412 56.1242 60.7279C58.2359 60.8621 60.2863 60.0017 61.6717 58.4004C63.0571 56.8021 63.6171 54.6496 63.1855 52.5787C62.5817 49.6767 63.9321 46.7162 66.525 45.2725C68.3713 44.24 69.6313 42.4083 69.9346 40.3142C70.238 38.22 69.5409 36.1054 68.0592 34.5975Z" fill="#C2874A"/>
<path d="M32.7544 10.0972C27.9302 10.5659 23.4771 12.3433 19.5708 15.3511C17.6665 16.8159 15.1958 19.5698 13.77 21.8159C13.1548 22.7827 11.9536 25.2437 11.5239 26.4155C11.0454 27.7241 10.5278 29.7358 10.2739 31.2886C9.97119 33.1929 9.97119 36.8062 10.2739 38.7104C10.7134 41.4058 11.4067 43.5737 12.5884 45.9858C13.8774 48.6128 15.2153 50.478 17.3638 52.6362C19.522 54.7847 21.3872 56.1226 24.0142 57.4116C26.4263 58.5933 28.5942 59.2866 31.2896 59.7261C33.1938 60.0288 36.8071 60.0288 38.7114 59.7261C41.4067 59.2866 43.5747 58.5933 45.9868 57.4116C48.6138 56.1226 50.479 54.7847 52.6372 52.6362C54.7856 50.478 56.1235 48.6128 57.4126 45.9858C58.272 44.2378 58.7017 43.0952 59.1704 41.3374C59.7856 38.9937 59.9321 37.7144 59.9321 34.9995C59.9321 32.2847 59.7856 31.0054 59.1704 28.6616C58.7017 26.9038 58.272 25.7612 57.4126 24.0132C56.1235 21.3862 54.7856 19.521 52.6372 17.3628C50.479 15.2144 48.6138 13.8765 45.9868 12.5874C43.5845 11.4058 41.3579 10.7026 38.7603 10.2925C37.3247 10.0679 34.1216 9.96045 32.7544 10.0972ZM37.5396 14.3354C43.8774 15.1265 49.4048 18.7202 52.8228 24.2573C55.9673 29.355 56.6802 35.8882 54.7173 41.6694C53.1646 46.2593 49.9907 50.2046 45.7427 52.8218C40.645 55.9663 34.1118 56.6792 28.3306 54.7163C23.7407 53.1636 19.7954 49.9897 17.1782 45.7417C14.0337 40.644 13.3208 34.1108 15.2837 28.3296C17.5786 21.5425 23.4673 16.23 30.4106 14.687C32.5493 14.2085 35.3814 14.0718 37.5396 14.3354Z" fill="#F3EEE7"/>
<path d="M32.4609 39.3934C31.084 39.6376 29.9902 39.9891 28.6914 40.6044C27.1875 41.327 26.1621 42.0497 24.209 43.7684L23.7402 44.1786L23.9355 44.4032C24.3066 44.8231 26.3477 47.1571 26.4062 47.2352C26.4453 47.2743 26.9141 46.9325 27.4414 46.4735C29.6973 44.5106 31.5039 43.661 33.9648 43.3973C35.8105 43.1923 37.793 43.5438 39.5703 44.3739C40.5371 44.8329 41.25 45.3212 42.5684 46.4638C43.3203 47.1181 43.5547 47.2841 43.6426 47.1864C43.7012 47.1181 44.2285 46.5126 44.8145 45.8388C45.4004 45.1649 45.9668 44.5106 46.0742 44.3934L46.2793 44.1591L45.8887 43.827C42.8223 41.1708 41.123 40.2138 38.2227 39.5204C36.7773 39.1786 33.9746 39.1102 32.4609 39.3934Z" fill="#F3EEE7"/>
<circle cx="27" cy="28" r="4" fill="#F3EEE7"/>
<circle cx="44" cy="28" r="4" fill="#F3EEE7"/>
</g>
<defs>
<clipPath id="clip0_819_247">
<rect width="70" height="70" fill="white"/>
</clipPath>
</defs>
</svg>
