<svg width="17" height="17" viewBox="0 0 17 17" fill="none" xmlns="http://www.w3.org/2000/svg">
<path d="M15.7005 12.2492H5.00779V3.12051C5.00705 3.07904 4.99687 3.03827 4.97801 3.00131C4.95915 2.96435 4.9321 2.93218 4.89894 2.90723L2.44026 1.05589C2.41158 1.03404 2.37886 1.01809 2.34399 1.00894C2.30912 0.999796 2.27277 0.997639 2.23705 1.0026C2.20134 1.00755 2.16696 1.01952 2.1359 1.03782C2.10484 1.05612 2.07772 1.08038 2.05609 1.10921C2.03417 1.13804 2.01817 1.1709 2.00899 1.20592C1.9998 1.24095 1.99763 1.27744 2.00259 1.3133C2.00755 1.34917 2.01953 1.3837 2.03787 1.41492C2.0562 1.44615 2.08053 1.47345 2.10945 1.49526L4.45714 3.26341V12.5308C4.45714 12.5668 4.46428 12.6025 4.47814 12.6357C4.492 12.669 4.51231 12.6992 4.53791 12.7246C4.5635 12.7499 4.59386 12.77 4.62726 12.7836C4.66065 12.7972 4.6964 12.8041 4.73246 12.8038H6.43987C6.21271 12.9692 6.04375 13.2022 5.95717 13.4695C5.8706 13.7367 5.87087 14.0245 5.95792 14.2916C6.04497 14.5587 6.21434 14.7914 6.4418 14.9564C6.66926 15.1214 6.94313 15.2103 7.22421 15.2103C7.5053 15.2103 7.77918 15.1214 8.00664 14.9564C8.2341 14.7914 8.40347 14.5587 8.49052 14.2916C8.57757 14.0245 8.57784 13.7367 8.49127 13.4695C8.40469 13.2022 8.23573 12.9692 8.00857 12.8038H12.7979C12.5707 12.9692 12.4017 13.2022 12.3152 13.4695C12.2286 13.7367 12.2288 14.0245 12.3159 14.2916C12.4029 14.5587 12.5723 14.7914 12.7998 14.9564C13.0272 15.1214 13.3011 15.2103 13.5822 15.2103C13.8633 15.2103 14.1372 15.1214 14.3646 14.9564C14.5921 14.7914 14.7615 14.5587 14.8485 14.2916C14.9356 14.0245 14.9358 13.7367 14.8492 13.4695C14.7627 13.2022 14.5937 12.9692 14.3665 12.8038H15.7005C15.7385 12.8071 15.7769 12.8025 15.813 12.7903C15.8492 12.778 15.8824 12.7584 15.9106 12.7326C15.9388 12.7069 15.9613 12.6755 15.9767 12.6406C15.9921 12.6056 16 12.5679 16 12.5297C16 12.4915 15.9921 12.4538 15.9767 12.4188C15.9613 12.3839 15.9388 12.3525 15.9106 12.3268C15.8824 12.301 15.8492 12.2814 15.813 12.2691C15.7769 12.2569 15.7385 12.2523 15.7005 12.2556V12.2492ZM7.22102 14.6508C7.06635 14.6513 6.91502 14.6058 6.78624 14.5202C6.65745 14.4346 6.55701 14.3127 6.49762 14.1699C6.43823 14.0272 6.42258 13.8701 6.45265 13.7184C6.48272 13.5668 6.55716 13.4275 6.66653 13.3182C6.77591 13.2089 6.9153 13.1345 7.06702 13.1045C7.21875 13.0744 7.37597 13.0901 7.5188 13.1494C7.66162 13.2088 7.7836 13.3091 7.86928 13.4378C7.95495 13.5665 8.00045 13.7178 8.00002 13.8723C7.99948 14.0772 7.91841 14.2736 7.77427 14.4192C7.63014 14.5649 7.4345 14.648 7.22956 14.6508H7.22102ZM13.5769 14.6508C13.4223 14.6508 13.2712 14.605 13.1427 14.5191C13.0142 14.4333 12.914 14.3112 12.855 14.1684C12.7959 14.0257 12.7806 13.8686 12.8109 13.7171C12.8412 13.5656 12.9158 13.4266 13.0253 13.3175C13.1347 13.2084 13.2741 13.1342 13.4258 13.1043C13.5775 13.0744 13.7346 13.0902 13.8773 13.1496C14.02 13.209 14.1418 13.3094 14.2274 13.4381C14.313 13.5667 14.3584 13.7179 14.358 13.8723C14.3575 14.0775 14.2761 14.2743 14.1315 14.42C13.9869 14.5657 13.7907 14.6486 13.5854 14.6508H13.5769Z" fill="#C2874A"/>
<path d="M6.17327 7.39052H13.8289C13.8651 7.3908 13.9011 7.38388 13.9346 7.37015C13.9681 7.35643 13.9986 7.33617 14.0242 7.31056C14.0498 7.28496 14.0701 7.25451 14.0838 7.221C14.0976 7.18749 14.1045 7.15159 14.1042 7.11538V6.23664H15.7007C15.7737 6.23664 15.8437 6.20765 15.8953 6.15605C15.947 6.10445 15.976 6.03447 15.976 5.9615C15.976 5.88852 15.947 5.81854 15.8953 5.76694C15.8437 5.71534 15.7737 5.68636 15.7007 5.68636H14.0957V4.80761C14.096 4.7714 14.089 4.7355 14.0753 4.70199C14.0616 4.66848 14.0413 4.63803 14.0157 4.61243C13.9901 4.58682 13.9596 4.56657 13.9261 4.55285C13.8925 4.53912 13.8566 4.5322 13.8204 4.53248H6.17327C6.10025 4.53248 6.03022 4.56147 5.97858 4.61307C5.92695 4.66467 5.89795 4.73464 5.89795 4.80761V7.11538C5.89795 7.18835 5.92695 7.25833 5.97858 7.30993C6.03022 7.36153 6.10025 7.39052 6.17327 7.39052ZM6.44859 5.08063H13.5664V6.84024H6.45926L6.44859 5.08063Z" fill="#C2874A"/>
<path d="M15.7007 9.42519H14.0957V8.54644C14.0957 8.47347 14.0667 8.40349 14.015 8.35189C13.9634 8.30029 13.8934 8.2713 13.8204 8.2713H6.17327C6.10025 8.2713 6.03022 8.30029 5.97858 8.35189C5.92695 8.40349 5.89795 8.47347 5.89795 8.54644V10.8563C5.89795 10.9293 5.92695 10.9993 5.97858 11.0509C6.03022 11.1025 6.10025 11.1315 6.17327 11.1315H13.8289C13.9019 11.1315 13.9719 11.1025 14.0236 11.0509C14.0752 10.9993 14.1042 10.9293 14.1042 10.8563V9.97547H15.7007C15.7368 9.97547 15.7726 9.96835 15.806 9.95452C15.8394 9.94069 15.8698 9.92043 15.8953 9.89488C15.9209 9.86933 15.9412 9.839 15.955 9.80562C15.9689 9.77224 15.976 9.73646 15.976 9.70032C15.976 9.66419 15.9689 9.62841 15.955 9.59503C15.9412 9.56165 15.9209 9.53132 15.8953 9.50577C15.8698 9.48022 15.8394 9.45995 15.806 9.44613C15.7726 9.4323 15.7368 9.42519 15.7007 9.42519ZM13.5664 10.5812H6.45926V8.82158H13.5664V10.5812Z" fill="#C2874A"/>
</svg>
