<svg width="156" height="27" viewBox="0 0 156 27" fill="none" xmlns="http://www.w3.org/2000/svg">
<path d="M13.1401 0.719727L16.0902 9.79931L25.6371 9.79931L17.9135 15.4108L20.8637 24.4904L13.1401 18.8789L5.41654 24.4904L8.36668 15.4108L0.643122 9.79931L10.19 9.79931L13.1401 0.719727Z" fill="#DDBD27"/>
<path d="M45.4272 0.719727L48.3773 9.79931L57.9242 9.79931L50.2006 15.4108L53.1507 24.4904L45.4272 18.8789L37.7036 24.4904L40.6538 15.4108L32.9302 9.79931L42.477 9.79931L45.4272 0.719727Z" fill="#DDBD27"/>
<path d="M77.7143 0.719727L80.6644 9.79931L90.2113 9.79931L82.4877 15.4108L85.4378 24.4904L77.7143 18.8789L69.9907 24.4904L72.9409 15.4108L65.2173 9.79931L74.7641 9.79931L77.7143 0.719727Z" fill="#DDBD27"/>
<path d="M110.001 0.719727L112.951 9.79931L122.498 9.79931L114.775 15.4108L117.725 24.4904L110.001 18.8789L102.278 24.4904L105.228 15.4108L97.5044 9.79931L107.051 9.79931L110.001 0.719727Z" fill="#DDBD27"/>
<path d="M142.288 0.719727L145.239 9.79931L154.785 9.79931L147.062 15.4108L150.012 24.4904L142.288 18.8789L134.565 24.4904L137.515 15.4108L129.791 9.79931L139.338 9.79931L142.288 0.719727Z" fill="#C4C4C4"/>
</svg>
