<svg width="15" height="15" viewBox="0 0 15 15" fill="none" xmlns="http://www.w3.org/2000/svg">
<path d="M1.09246 9.30652C1.42846 9.29805 1.75922 9.39094 2.04161 9.57309C2.39278 9.78385 2.79469 9.89519 3.20432 9.89519C3.61395 9.89519 4.01586 9.78385 4.36703 9.57309C4.65286 9.39868 4.98128 9.3064 5.31618 9.3064C5.65108 9.3064 5.9795 9.39868 6.26533 9.57309C6.61649 9.78385 7.01841 9.89519 7.42804 9.89519C7.83766 9.89519 8.23958 9.78385 8.59075 9.57309C8.87658 9.39868 9.20499 9.3064 9.53989 9.3064C9.87479 9.3064 10.2032 9.39868 10.489 9.57309C10.8402 9.78385 11.2421 9.89519 11.6518 9.89519C12.0614 9.89519 12.4633 9.78385 12.8145 9.57309C13.0969 9.39094 13.4276 9.29805 13.7636 9.30652C13.7941 9.30915 13.8248 9.30542 13.8538 9.29556C13.8828 9.2857 13.9094 9.26992 13.932 9.24924C13.9545 9.22856 13.9725 9.20342 13.9848 9.17541C13.9972 9.14741 14.0035 9.11715 14.0035 9.08656C14.0035 9.05596 13.9972 9.02571 13.9848 8.9977C13.9725 8.96969 13.9545 8.94455 13.932 8.92387C13.9094 8.90319 13.8828 8.88742 13.8538 8.87756C13.8248 8.8677 13.7941 8.86397 13.7636 8.8666C13.3522 8.86006 12.9478 8.97374 12.6001 9.19367C12.3187 9.37664 11.9882 9.46962 11.6526 9.46024C11.4756 9.46372 11.299 9.44056 11.1289 9.39156V3.87864C11.1291 3.69991 11.1901 3.52657 11.3019 3.38704C11.4136 3.2475 11.5695 3.15007 11.744 3.11071C11.9184 3.07136 12.1011 3.09242 12.262 3.17044C12.4229 3.24847 12.5525 3.37881 12.6295 3.54011C12.6572 3.58851 12.7022 3.62466 12.7554 3.6413C12.8086 3.65794 12.8662 3.65385 12.9165 3.62984C12.9669 3.60583 13.0063 3.56367 13.0268 3.51184C13.0473 3.46001 13.0475 3.40234 13.0272 3.35041C12.9078 3.09788 12.7058 2.89357 12.4546 2.77117C12.2034 2.64878 11.9179 2.61562 11.6453 2.67715C11.3726 2.73869 11.1291 2.89125 10.955 3.10967C10.7808 3.3281 10.6863 3.59933 10.6871 3.87864V5.26055H8.20781V3.87864C8.20725 3.69929 8.2679 3.52511 8.37977 3.38486C8.49163 3.24461 8.64801 3.14667 8.82308 3.10722C8.99816 3.06777 9.18146 3.08916 9.34272 3.16786C9.50399 3.24657 9.63358 3.37788 9.71009 3.54011C9.73711 3.59003 9.78232 3.62763 9.83635 3.64511C9.89038 3.66259 9.94907 3.65861 10.0002 3.63399C10.0514 3.60937 10.0911 3.566 10.1111 3.51289C10.1312 3.45978 10.1299 3.40101 10.1077 3.34878C9.98716 3.09761 9.78482 2.8948 9.53385 2.77355C9.28288 2.6523 8.99816 2.61979 8.72629 2.68135C8.45442 2.7429 8.21152 2.89488 8.03736 3.11239C7.86319 3.32991 7.76809 3.60007 7.7676 3.87864V9.42753C7.65302 9.44714 7.53692 9.45645 7.42067 9.45534C7.08457 9.46463 6.75357 9.37167 6.47152 9.18877C6.11969 8.97906 5.71766 8.86834 5.308 8.86834C4.89834 8.86834 4.4963 8.97906 4.14447 9.18877C3.85888 9.36303 3.53075 9.45523 3.19614 9.45523C2.86152 9.45523 2.53339 9.36303 2.24781 9.18877C1.90023 8.96857 1.49576 8.85487 1.08428 8.86169C1.02918 8.86644 0.977868 8.89167 0.940482 8.9324C0.903095 8.97313 0.882353 9.02638 0.882353 9.08165C0.882353 9.13692 0.903095 9.19018 0.940482 9.2309C0.977868 9.27163 1.02918 9.29686 1.08428 9.30161L1.09246 9.30652ZM10.6887 5.70047V7.31297H8.20781V5.70865L10.6887 5.70047ZM8.21599 7.74472H10.6887V9.18059C10.3389 8.97285 9.93946 8.86321 9.53253 8.86321C9.1256 8.86321 8.7262 8.97285 8.37637 9.18059C8.32237 9.21167 8.27 9.2411 8.21272 9.26727L8.21599 7.74472Z" fill="#191E19"/>
<path d="M13.7554 11.534C13.344 11.5275 12.9396 11.6412 12.5919 11.8611C12.3063 12.0354 11.9782 12.1276 11.6436 12.1276C11.309 12.1276 10.9808 12.0354 10.6952 11.8611C10.3434 11.6514 9.94137 11.5407 9.53171 11.5407C9.12205 11.5407 8.72002 11.6514 8.36818 11.8611C8.0826 12.0354 7.75447 12.1276 7.41986 12.1276C7.08524 12.1276 6.75711 12.0354 6.47152 11.8611C6.11969 11.6514 5.71766 11.5407 5.308 11.5407C4.89834 11.5407 4.4963 11.6514 4.14447 11.8611C3.85888 12.0354 3.53075 12.1276 3.19614 12.1276C2.86152 12.1276 2.53339 12.0354 2.24781 11.8611C1.90023 11.6409 1.49576 11.5272 1.08428 11.534C1.02918 11.5388 0.977868 11.564 0.940482 11.6047C0.903095 11.6455 0.882353 11.6987 0.882353 11.754C0.882353 11.8093 0.903095 11.8625 0.940482 11.9032C0.977868 11.944 1.02918 11.9692 1.08428 11.9739C1.42028 11.9655 1.75104 12.0584 2.03343 12.2405C2.38495 12.4503 2.78673 12.561 3.19614 12.561C3.60555 12.561 4.00732 12.4503 4.35885 12.2405C4.64468 12.0661 4.9731 11.9738 5.308 11.9738C5.6429 11.9738 5.97131 12.0661 6.25715 12.2405C6.60867 12.4503 7.01045 12.561 7.41986 12.561C7.82927 12.561 8.23104 12.4503 8.58256 12.2405C8.86839 12.0661 9.19681 11.9738 9.53171 11.9738C9.86661 11.9738 10.195 12.0661 10.4809 12.2405C10.8324 12.4503 11.2342 12.561 11.6436 12.561C12.053 12.561 12.4548 12.4503 12.8063 12.2405C13.0887 12.0584 13.4194 11.9655 13.7554 11.9739C13.7859 11.9766 13.8166 11.9728 13.8456 11.963C13.8746 11.9531 13.9012 11.9374 13.9238 11.9167C13.9463 11.896 13.9643 11.8708 13.9767 11.8428C13.989 11.8148 13.9953 11.7846 13.9953 11.754C13.9953 11.7234 13.989 11.6931 13.9767 11.6651C13.9643 11.6371 13.9463 11.612 13.9238 11.5913C13.9012 11.5706 13.8746 11.5548 13.8456 11.545C13.8166 11.5351 13.7859 11.5314 13.7554 11.534Z" fill="#191E19"/>
</svg>
