<svg width="17" height="17" viewBox="0 0 17 17" fill="none" xmlns="http://www.w3.org/2000/svg">
<path d="M1.23812 10.5475C1.61892 10.5379 1.99378 10.6432 2.31383 10.8496C2.71181 11.0885 3.16732 11.2146 3.63156 11.2146C4.09581 11.2146 4.55131 11.0885 4.9493 10.8496C5.27324 10.6519 5.64545 10.5474 6.025 10.5474C6.40456 10.5474 6.77676 10.6519 7.10071 10.8496C7.49869 11.0885 7.9542 11.2146 8.41844 11.2146C8.88269 11.2146 9.33819 11.0885 9.73618 10.8496C10.0601 10.6519 10.4323 10.5474 10.8119 10.5474C11.1914 10.5474 11.5636 10.6519 11.8876 10.8496C12.2856 11.0885 12.7411 11.2146 13.2053 11.2146C13.6696 11.2146 14.1251 11.0885 14.5231 10.8496C14.8431 10.6432 15.218 10.5379 15.5988 10.5475C15.6333 10.5505 15.6681 10.5462 15.701 10.5351C15.7338 10.5239 15.764 10.506 15.7896 10.4826C15.8151 10.4591 15.8355 10.4306 15.8495 10.3989C15.8635 10.3672 15.8707 10.3329 15.8707 10.2982C15.8707 10.2635 15.8635 10.2292 15.8495 10.1975C15.8355 10.1658 15.8151 10.1373 15.7896 10.1138C15.764 10.0904 15.7338 10.0725 15.701 10.0613C15.6681 10.0502 15.6333 10.0459 15.5988 10.0489C15.1325 10.0415 14.6741 10.1703 14.2801 10.4196C13.9612 10.627 13.5866 10.7323 13.2062 10.7217C13.0056 10.7256 12.8056 10.6994 12.6128 10.6439V4.39589C12.613 4.19333 12.6821 3.99687 12.8088 3.83874C12.9355 3.6806 13.1121 3.57017 13.3099 3.52557C13.5076 3.48097 13.7146 3.50484 13.8969 3.59327C14.0793 3.68169 14.2262 3.82942 14.3135 4.01223C14.3448 4.06708 14.3958 4.10805 14.4561 4.12691C14.5165 4.14577 14.5817 4.14113 14.6387 4.11392C14.6958 4.0867 14.7404 4.03892 14.7637 3.98018C14.787 3.92144 14.7871 3.85608 14.7642 3.79723C14.6288 3.51102 14.3999 3.27947 14.1152 3.14076C13.8305 3.00205 13.5069 2.96446 13.198 3.03421C12.889 3.10395 12.613 3.27685 12.4156 3.5244C12.2182 3.77194 12.1111 4.07934 12.112 4.39589V5.96206H9.30219V4.39589C9.30155 4.19263 9.37029 3.99522 9.49707 3.83627C9.62384 3.67732 9.80108 3.56632 9.99949 3.52161C10.1979 3.4769 10.4057 3.50114 10.5884 3.59034C10.7712 3.67954 10.9181 3.82836 11.0048 4.01223C11.0354 4.0688 11.0866 4.11141 11.1479 4.13122C11.2091 4.15103 11.2756 4.14652 11.3336 4.11862C11.3916 4.09071 11.4366 4.04157 11.4593 3.98138C11.482 3.92119 11.4806 3.85458 11.4554 3.79538C11.3188 3.51072 11.0895 3.28087 10.805 3.14345C10.5206 3.00603 10.1979 2.96919 9.8898 3.03896C9.58168 3.10872 9.30639 3.28096 9.109 3.52748C8.91162 3.77399 8.80383 4.08017 8.80329 4.39589V10.6846C8.67343 10.7069 8.54184 10.7174 8.4101 10.7161C8.02918 10.7267 7.65405 10.6213 7.33439 10.414C6.93565 10.1764 6.48001 10.0509 6.01573 10.0509C5.55145 10.0509 5.09581 10.1764 4.69706 10.414C4.3734 10.6115 4.00152 10.716 3.62229 10.716C3.24306 10.716 2.87118 10.6115 2.54751 10.414C2.1536 10.1645 1.69519 10.0356 1.22885 10.0433C1.1664 10.0487 1.10825 10.0773 1.06588 10.1235C1.02351 10.1696 1 10.23 1 10.2926C1 10.3553 1.02351 10.4156 1.06588 10.4618C1.10825 10.5079 1.1664 10.5365 1.22885 10.5419L1.23812 10.5475ZM12.1139 6.46063V8.28813H9.30219V6.4699L12.1139 6.46063ZM9.31146 8.77744H12.1139V10.4048C11.7174 10.1693 11.2647 10.0451 10.8035 10.0451C10.3423 10.0451 9.88969 10.1693 9.49322 10.4048C9.43202 10.44 9.37267 10.4733 9.30775 10.503L9.31146 8.77744Z" fill="#C2874A"/>
<path d="M15.5895 13.0719C15.1232 13.0645 14.6649 13.1933 14.2708 13.4426C13.9472 13.6401 13.5753 13.7446 13.196 13.7446C12.8168 13.7446 12.4449 13.6401 12.1213 13.4426C11.7225 13.2049 11.2669 13.0795 10.8026 13.0795C10.3383 13.0795 9.88269 13.2049 9.48394 13.4426C9.16028 13.6401 8.7884 13.7446 8.40917 13.7446C8.02994 13.7446 7.65805 13.6401 7.33439 13.4426C6.93565 13.2049 6.48001 13.0795 6.01573 13.0795C5.55145 13.0795 5.09581 13.2049 4.69706 13.4426C4.3734 13.6401 4.00152 13.7446 3.62229 13.7446C3.24306 13.7446 2.87118 13.6401 2.54751 13.4426C2.1536 13.193 1.69519 13.0642 1.22885 13.0719C1.1664 13.0773 1.10825 13.1059 1.06588 13.152C1.02351 13.1982 1 13.2586 1 13.3212C1 13.3838 1.02351 13.4442 1.06588 13.4904C1.10825 13.5365 1.1664 13.5651 1.22885 13.5705C1.60965 13.5609 1.98451 13.6662 2.30455 13.8726C2.70295 14.1103 3.15829 14.2358 3.62229 14.2358C4.08629 14.2358 4.54163 14.1103 4.94003 13.8726C5.26397 13.6749 5.63617 13.5704 6.01573 13.5704C6.39528 13.5704 6.76749 13.6749 7.09143 13.8726C7.48982 14.1103 7.94517 14.2358 8.40917 14.2358C8.87317 14.2358 9.32851 14.1103 9.7269 13.8726C10.0508 13.6749 10.4231 13.5704 10.8026 13.5704C11.1822 13.5704 11.5544 13.6749 11.8783 13.8726C12.2767 14.1103 12.7321 14.2358 13.196 14.2358C13.66 14.2358 14.1154 14.1103 14.5138 13.8726C14.8338 13.6662 15.2087 13.5609 15.5895 13.5705C15.6241 13.5735 15.6589 13.5692 15.6917 13.5581C15.7246 13.5469 15.7547 13.529 15.7803 13.5056C15.8058 13.4821 15.8263 13.4536 15.8402 13.4219C15.8542 13.3902 15.8614 13.3559 15.8614 13.3212C15.8614 13.2865 15.8542 13.2522 15.8402 13.2205C15.8263 13.1888 15.8058 13.1603 15.7803 13.1368C15.7547 13.1134 15.7246 13.0955 15.6917 13.0843C15.6589 13.0732 15.6241 13.0689 15.5895 13.0719Z" fill="#C2874A"/>
</svg>
