<svg width="17" height="17" viewBox="0 0 17 17" fill="none" xmlns="http://www.w3.org/2000/svg">
<path d="M16.2857 6.10171C16.2786 5.01178 15.8405 3.96889 15.0669 3.2005C14.2934 2.43211 13.2472 2.00057 12.1566 2H5.12915C4.03478 2.00119 2.98555 2.43601 2.21151 3.20912C1.43747 3.98224 1.00179 5.03055 1 6.12419C1 6.20053 1.03035 6.27375 1.08436 6.32773C1.13838 6.38171 1.21164 6.41203 1.28803 6.41203H6.31951C6.3959 6.41203 6.46916 6.38171 6.52318 6.32773C6.57719 6.27375 6.60754 6.20053 6.60754 6.12419V4.22401H10.6782V6.12419C10.6782 6.20053 10.7085 6.27375 10.7625 6.32773C10.8166 6.38171 10.8898 6.41203 10.9662 6.41203H15.9977C16.0741 6.41203 16.1473 6.38171 16.2013 6.32773C16.2554 6.27375 16.2857 6.20053 16.2857 6.12419V6.10171ZM11.2542 5.83635V3.93617C11.2542 3.85983 11.2239 3.78662 11.1699 3.73264C11.1159 3.67865 11.0426 3.64833 10.9662 3.64833H6.31951C6.24312 3.64833 6.16986 3.67865 6.11584 3.73264C6.06182 3.78662 6.03149 3.85983 6.03149 3.93617V5.83635H1.58956C1.66292 4.9483 2.06751 4.12022 2.72312 3.51627C3.37873 2.91232 4.23749 2.5766 5.12915 2.57568H12.1566C13.0485 2.57656 13.9075 2.9122 14.5635 3.5161C15.2194 4.12 15.6245 4.94811 15.6984 5.83635H11.2542Z" fill="#C2874A"/>
<path d="M12.2713 7.13165H5.01434C4.42907 7.13225 3.86794 7.36486 3.4541 7.77844C3.04025 8.19202 2.80748 8.75278 2.80688 9.33767V12.7917C2.80748 13.3768 3.04017 13.9378 3.45396 14.3518C3.86774 14.7657 4.42886 14.9988 5.01434 15H12.2713C12.8571 14.9994 13.4188 14.7665 13.8331 14.3525C14.2474 13.9385 14.4804 13.3772 14.481 12.7917V9.33767C14.4804 8.75239 14.2473 8.19128 13.833 7.77764C13.4186 7.364 12.8569 7.13165 12.2713 7.13165ZM13.9049 12.7917C13.9043 13.2245 13.732 13.6394 13.4258 13.9455C13.1195 14.2515 12.7044 14.4237 12.2713 14.4243H5.01434C4.58146 14.4237 4.16651 14.2515 3.86063 13.9453C3.55474 13.6392 3.38294 13.2243 3.38294 12.7917V9.33767C3.38353 8.90546 3.55561 8.49112 3.86142 8.1855C4.16724 7.87988 4.58185 7.70792 5.01434 7.70733H12.2713C12.7042 7.70733 13.1193 7.87902 13.4256 8.18471C13.732 8.49039 13.9043 8.90507 13.9049 9.33767V12.7917Z" fill="#C2874A"/>
<path d="M7.12738 8.81824H6.65257C6.50966 8.81824 6.3938 8.93402 6.3938 9.07684V9.55132C6.3938 9.69415 6.50966 9.80993 6.65257 9.80993H7.12738C7.2703 9.80993 7.38615 9.69415 7.38615 9.55132V9.07684C7.38615 8.93402 7.2703 8.81824 7.12738 8.81824Z" fill="#C2874A"/>
<path d="M8.88004 8.81824H8.40525C8.26234 8.81824 8.14648 8.93402 8.14648 9.07684V9.55132C8.14648 9.69415 8.26234 9.80993 8.40525 9.80993H8.88004C9.02295 9.80993 9.13881 9.69415 9.13881 9.55132V9.07684C9.13881 8.93402 9.02295 8.81824 8.88004 8.81824Z" fill="#C2874A"/>
<path d="M10.6332 8.81824H10.1584C10.0155 8.81824 9.89966 8.93402 9.89966 9.07684V9.55132C9.89966 9.69415 10.0155 9.80993 10.1584 9.80993H10.6332C10.7761 9.80993 10.892 9.69415 10.892 9.55132V9.07684C10.892 8.93402 10.7761 8.81824 10.6332 8.81824Z" fill="#C2874A"/>
<path d="M7.12738 10.5699H6.65257C6.50966 10.5699 6.3938 10.6857 6.3938 10.8286V11.303C6.3938 11.4459 6.50966 11.5616 6.65257 11.5616H7.12738C7.2703 11.5616 7.38615 11.4459 7.38615 11.303V10.8286C7.38615 10.6857 7.2703 10.5699 7.12738 10.5699Z" fill="#C2874A"/>
<path d="M8.88004 10.5699H8.40525C8.26234 10.5699 8.14648 10.6857 8.14648 10.8286V11.303C8.14648 11.4459 8.26234 11.5616 8.40525 11.5616H8.88004C9.02295 11.5616 9.13881 11.4459 9.13881 11.303V10.8286C9.13881 10.6857 9.02295 10.5699 8.88004 10.5699Z" fill="#C2874A"/>
<path d="M10.6332 10.5699H10.1584C10.0155 10.5699 9.89966 10.6857 9.89966 10.8286V11.303C9.89966 11.4459 10.0155 11.5616 10.1584 11.5616H10.6332C10.7761 11.5616 10.892 11.4459 10.892 11.303V10.8286C10.892 10.6857 10.7761 10.5699 10.6332 10.5699Z" fill="#C2874A"/>
<path d="M7.12738 12.3217H6.65257C6.50966 12.3217 6.3938 12.4375 6.3938 12.5804V13.0548C6.3938 13.1977 6.50966 13.3134 6.65257 13.3134H7.12738C7.2703 13.3134 7.38615 13.1977 7.38615 13.0548V12.5804C7.38615 12.4375 7.2703 12.3217 7.12738 12.3217Z" fill="#C2874A"/>
<path d="M8.88004 12.3217H8.40525C8.26234 12.3217 8.14648 12.4375 8.14648 12.5804V13.0548C8.14648 13.1977 8.26234 13.3134 8.40525 13.3134H8.88004C9.02295 13.3134 9.13881 13.1977 9.13881 13.0548V12.5804C9.13881 12.4375 9.02295 12.3217 8.88004 12.3217Z" fill="#C2874A"/>
<path d="M10.6332 12.3217H10.1584C10.0155 12.3217 9.89966 12.4375 9.89966 12.5804V13.0548C9.89966 13.1977 10.0155 13.3134 10.1584 13.3134H10.6332C10.7761 13.3134 10.892 13.1977 10.892 13.0548V12.5804C10.892 12.4375 10.7761 12.3217 10.6332 12.3217Z" fill="#C2874A"/>
</svg>
