<svg width="17" height="17" viewBox="0 0 17 17" fill="none" xmlns="http://www.w3.org/2000/svg">
<path d="M15.7352 3H2.26906C2.23309 3.00027 2.19753 3.0077 2.16446 3.02184C2.13139 3.03598 2.10148 3.05655 2.07644 3.08236C2.05141 3.10818 2.03175 3.13871 2.01864 3.17218C2.00553 3.20566 1.99923 3.2414 2.00008 3.27734V12.4188C2.00064 12.4903 2.02945 12.5587 2.08023 12.609C2.13102 12.6594 2.19966 12.6876 2.2712 12.6876H7.27721L6.88655 14.0764H6.05613C5.98865 14.0824 5.92587 14.1135 5.88014 14.1634C5.83441 14.2134 5.80905 14.2786 5.80905 14.3463C5.80905 14.414 5.83441 14.4793 5.88014 14.5292C5.92587 14.5791 5.98865 14.6102 6.05613 14.6162H11.9374C11.9749 14.6195 12.0126 14.615 12.0483 14.603C12.0839 14.5909 12.1167 14.5716 12.1445 14.5462C12.1722 14.5208 12.1944 14.4899 12.2095 14.4555C12.2247 14.4211 12.2325 14.3839 12.2325 14.3463C12.2325 14.3087 12.2247 14.2715 12.2095 14.2371C12.1944 14.2027 12.1722 14.1718 12.1445 14.1464C12.1167 14.121 12.0839 14.1017 12.0483 14.0896C12.0126 14.0776 11.9749 14.0731 11.9374 14.0764H11.1134L10.7249 12.6876H15.7309C15.8022 12.6876 15.8706 12.6593 15.9211 12.6089C15.9715 12.5585 15.9999 12.4901 15.9999 12.4188V3.27734C16.001 3.24168 15.995 3.20616 15.9823 3.17283C15.9695 3.13951 15.9503 3.10905 15.9256 3.08324C15.901 3.05743 15.8715 3.03678 15.8388 3.02248C15.8061 3.00819 15.7708 3.00055 15.7352 3ZM10.5562 14.0679H7.44586L7.83439 12.6791H10.1677L10.5562 14.0679ZM15.4662 12.1479H2.53804V3.53974H15.464L15.4662 12.1479Z" fill="#C2874A"/>
<path d="M15.7352 11.4161H2.48265C2.44516 11.4194 2.4074 11.4149 2.37175 11.4029C2.3361 11.3909 2.30335 11.3715 2.27559 11.3461C2.24783 11.3207 2.22567 11.2899 2.2105 11.2554C2.19533 11.221 2.1875 11.1838 2.1875 11.1462C2.1875 11.1086 2.19533 11.0714 2.2105 11.037C2.22567 11.0026 2.24783 10.9717 2.27559 10.9464C2.30335 10.921 2.3361 10.9016 2.37175 10.8896C2.4074 10.8775 2.44516 10.873 2.48265 10.8764H15.7352C15.8027 10.8824 15.8655 10.9134 15.9112 10.9634C15.957 11.0133 15.9823 11.0785 15.9823 11.1462C15.9823 11.2139 15.957 11.2792 15.9112 11.3291C15.8655 11.3791 15.8027 11.4101 15.7352 11.4161Z" fill="#C2874A"/>
</svg>
