<svg width="20" height="20" viewBox="0 0 20 20" fill="none" xmlns="http://www.w3.org/2000/svg">
<path d="M10 4.39999C3.439 4.39999 0 9.23199 0 9.99999C0 10.766 3.439 15.6 10 15.6C16.56 15.6 20 10.766 20 9.99999C20 9.23199 16.56 4.39999 10 4.39999ZM10 14.307C7.545 14.307 5.555 12.379 5.555 9.99999C5.555 7.62099 7.545 5.69099 10 5.69099C12.455 5.69099 14.444 7.62099 14.444 9.99999C14.444 12.379 12.455 14.307 10 14.307ZM10 9.99999C9.593 9.55299 10.663 7.84599 10 7.84599C8.772 7.84599 7.777 8.81099 7.777 9.99999C7.777 11.189 8.772 12.154 10 12.154C11.227 12.154 12.223 11.189 12.223 9.99999C12.223 9.45299 10.346 10.379 10 9.99999Z" fill="black"/>
</svg>
