<svg width="15" height="15" viewBox="0 0 15 15" fill="none" xmlns="http://www.w3.org/2000/svg">
<path d="M7.13987 7.84673L7.14032 7.8472C7.28565 7.9977 7.46696 8.04152 7.57946 8.05666C7.69946 8.07281 7.82059 8.06666 7.92224 8.05597C8.10412 8.03686 8.3112 7.99235 8.4816 7.95572C8.49997 7.95177 8.51791 7.94792 8.53534 7.94419C8.54103 7.94298 8.54666 7.94178 8.55223 7.9406C8.37047 8.27509 7.98692 8.52715 7.5 8.52715C6.8131 8.52715 6.33275 8.02654 6.33275 7.49988C6.33275 7.09115 6.62208 6.6981 7.07274 6.54259C7.02913 6.6899 6.9738 6.87866 6.94707 7.05082C6.93118 7.15313 6.92014 7.27855 6.93692 7.40769C6.954 7.53909 7.00446 7.70614 7.13987 7.84673ZM8.97191 7.87442C8.97181 7.87451 8.96963 7.87445 8.96567 7.87395C8.97003 7.87408 8.97201 7.87433 8.97191 7.87442ZM0.558542 7.58546C0.53955 7.55093 0.525437 7.52237 0.515239 7.49973C0.525444 7.47704 0.539577 7.4484 0.558609 7.41377C0.621713 7.29897 0.724181 7.14451 0.8701 6.96238C1.16103 6.59926 1.60536 6.15026 2.20054 5.71349C3.1978 4.98165 4.60832 4.29121 6.41969 4.08877C4.84911 4.51736 3.66625 5.85697 3.66625 7.49988C3.66625 9.14579 4.85328 10.486 6.42768 10.9119C4.61252 10.7105 3.19933 10.0188 2.20057 9.28577C1.60539 8.84891 1.16103 8.39985 0.870075 8.03675C0.724142 7.85464 0.621657 7.70021 0.558542 7.58546ZM0.494588 7.55329C0.494551 7.55331 0.494761 7.55238 0.495332 7.55044C0.494911 7.5523 0.494625 7.55327 0.494588 7.55329ZM11.333 7.49988C11.333 5.85709 10.1508 4.51742 8.58033 4.08879C10.3914 4.29125 11.8019 4.98167 12.7992 5.7135C13.3944 6.15028 13.8388 6.59929 14.1298 6.96242C14.2758 7.14455 14.3783 7.29901 14.4414 7.41382C14.4604 7.44842 14.4745 7.47704 14.4847 7.49973C14.4745 7.52236 14.4604 7.55091 14.4415 7.58542C14.3783 7.70017 14.2758 7.8546 14.1298 8.03672C13.8388 8.39982 13.3944 8.8489 12.7992 9.28576C11.8003 10.0188 10.3872 10.7104 8.57234 10.9118C10.1466 10.486 11.333 9.14566 11.333 7.49988ZM14.5054 7.55333C14.5054 7.5533 14.5051 7.55232 14.5047 7.55046C14.5052 7.55242 14.5055 7.55336 14.5054 7.55333ZM14.5047 7.44897C14.5051 7.44709 14.5054 7.44611 14.5055 7.44607C14.5055 7.44603 14.5053 7.44698 14.5047 7.44897ZM0.495286 7.449C0.494706 7.44703 0.494492 7.44608 0.49453 7.4461C0.494568 7.44612 0.494858 7.44711 0.495286 7.449Z" stroke="#191E19"/>
</svg>
