<svg width="17" height="17" viewBox="0 0 17 17" fill="none" xmlns="http://www.w3.org/2000/svg">
<path d="M8.13987 8.84685L8.14032 8.84732C8.28998 9.00229 8.478 9.04867 8.59894 9.06494C8.72739 9.08223 8.85869 9.07579 8.97157 9.06393C9.17389 9.04267 9.4049 8.99303 9.59867 8.95139C9.61939 8.94694 9.63968 8.94258 9.65947 8.93835C9.71351 8.92681 9.76358 8.91635 9.80981 8.90706C9.62448 9.3697 9.13194 9.7309 8.5 9.7309C7.6903 9.7309 7.11045 9.13906 7.11045 8.5C7.11045 7.96794 7.51238 7.46862 8.11425 7.31633C8.11028 7.33013 8.10612 7.34442 8.10179 7.3592C8.0959 7.37931 8.08968 7.4003 8.08324 7.42206C8.03314 7.59131 7.96951 7.80621 7.93922 8.00129C7.9217 8.11414 7.91008 8.24933 7.92796 8.38692C7.94613 8.52678 7.99937 8.70097 8.13987 8.84685ZM10.1722 8.85801C10.1721 8.85807 10.1705 8.85797 10.1674 8.85752C10.1707 8.85772 10.1723 8.85795 10.1722 8.85801ZM0.574601 8.62912C0.544444 8.57429 0.524175 8.5312 0.511381 8.49984C0.524175 8.46843 0.544462 8.42525 0.574668 8.37029C0.648456 8.23605 0.766921 8.05779 0.934086 7.84915C1.26751 7.43299 1.77533 6.92008 2.4545 6.42167C3.81 5.42694 5.83346 4.5 8.5 4.5C11.1661 4.5 13.1896 5.42694 14.5452 6.42168C15.2244 6.9201 15.7323 7.43302 16.0658 7.84918C16.233 8.05783 16.3515 8.23609 16.4253 8.37034C16.4555 8.42527 16.4758 8.46844 16.4886 8.49985C16.4758 8.5312 16.4555 8.57427 16.4254 8.62907C16.3516 8.76325 16.2331 8.94147 16.0658 9.1501C15.7323 9.56623 15.2244 10.0792 14.5452 10.5777C13.1895 11.5727 11.166 12.5 8.5 12.5C5.83352 12.5 3.81006 11.5727 2.45454 10.5778C1.77535 10.0792 1.26751 9.56626 0.934061 9.15014C0.766882 8.94151 0.648401 8.76329 0.574601 8.62912ZM0.496199 8.54318C0.496185 8.54319 0.496286 8.5427 0.496547 8.54169L0.496199 8.54318ZM16.5038 8.54322C16.5038 8.54323 16.5036 8.54269 16.5034 8.54161L16.5038 8.54322ZM16.5035 8.45815C16.5037 8.45701 16.5038 8.45643 16.5039 8.45641L16.5035 8.45815ZM0.496518 8.45802C0.496242 8.45695 0.496134 8.45644 0.496148 8.45645L0.496518 8.45802ZM4.22175 8.5C4.22175 10.7282 6.17931 12.461 8.5 12.461C10.8208 12.461 12.7774 10.7281 12.7774 8.5C12.7774 6.27219 10.8212 4.53741 8.5 4.53741C6.179 4.53741 4.22175 6.27205 4.22175 8.5Z" stroke="#C2874A"/>
</svg>
