<svg width="17" height="17" viewBox="0 0 17 17" fill="none" xmlns="http://www.w3.org/2000/svg">
<path d="M8.5 4C2.92315 4 0 7.88285 0 8.5C0 9.11554 2.92315 13 8.5 13C14.076 13 17 9.11554 17 8.5C17 7.88285 14.076 4 8.5 4ZM8.5 11.961C6.41325 11.961 4.72175 10.4117 4.72175 8.5C4.72175 6.5883 6.41325 5.03741 8.5 5.03741C10.5868 5.03741 12.2774 6.5883 12.2774 8.5C12.2774 10.4117 10.5868 11.961 8.5 11.961ZM8.5 8.5C8.15405 8.1408 9.06355 6.7691 8.5 6.7691C7.4562 6.7691 6.61045 7.54455 6.61045 8.5C6.61045 9.45545 7.4562 10.2309 8.5 10.2309C9.54295 10.2309 10.3895 9.45545 10.3895 8.5C10.3895 8.06044 8.7941 8.80456 8.5 8.5Z" fill="#C2874A"/>
</svg>
