<svg width="20" height="20" viewBox="0 0 20 20" fill="none" xmlns="http://www.w3.org/2000/svg">
<path fill-rule="evenodd" clip-rule="evenodd" d="M19.4495 0.240997C19.5259 0.317197 19.5865 0.40772 19.6278 0.507379C19.6692 0.607039 19.6905 0.713879 19.6905 0.821778C19.6905 0.929678 19.6692 1.03652 19.6278 1.13618C19.5865 1.23584 19.5259 1.32636 19.4495 1.40256L1.40262 19.4494C1.24858 19.6034 1.03967 19.69 0.821836 19.69C0.604001 19.69 0.395088 19.6034 0.241055 19.4494C0.0870227 19.2954 0.000488281 19.0865 0.000488281 18.8686C0.000488281 18.6508 0.0870227 18.4419 0.241055 18.2879L18.2879 0.240997C18.3641 0.164605 18.4546 0.103995 18.5543 0.0626411C18.654 0.0212869 18.7608 0 18.8687 0C18.9766 0 19.0834 0.0212869 19.1831 0.0626411C19.2828 0.103995 19.3733 0.164605 19.4495 0.240997V0.240997Z" fill="white"/>
<path fill-rule="evenodd" clip-rule="evenodd" d="M0.240997 0.240997C0.164605 0.317197 0.103995 0.40772 0.0626411 0.507379C0.0212869 0.607039 0 0.713879 0 0.821778C0 0.929678 0.0212869 1.03652 0.0626411 1.13618C0.103995 1.23584 0.164605 1.32636 0.240997 1.40256L18.2879 19.4494C18.4419 19.6034 18.6508 19.69 18.8686 19.69C19.0865 19.69 19.2954 19.6034 19.4494 19.4494C19.6034 19.2954 19.69 19.0865 19.69 18.8686C19.69 18.6508 19.6034 18.4419 19.4494 18.2879L1.40256 0.240997C1.32636 0.164605 1.23584 0.103995 1.13618 0.0626411C1.03652 0.0212869 0.929678 0 0.821778 0C0.713879 0 0.607039 0.0212869 0.507379 0.0626411C0.40772 0.103995 0.317197 0.164605 0.240997 0.240997V0.240997Z" fill="white"/>
</svg>
