<svg width="21" height="21" viewBox="0 0 21 21" fill="none" xmlns="http://www.w3.org/2000/svg">
<path d="M10.5669 2.62329H10.6838C11.7626 2.62723 17.2292 2.6666 18.7031 3.06298C19.1487 3.18395 19.5547 3.41975 19.8806 3.7468C20.2066 4.07386 20.4409 4.48072 20.5603 4.92673C20.6929 5.42548 20.7861 6.08567 20.8491 6.76685L20.8622 6.90335L20.8911 7.2446L20.9016 7.3811C20.9869 8.58073 20.9974 9.70423 20.9987 9.94967V10.0481C20.9974 10.3027 20.9856 11.5024 20.8911 12.7519L20.8806 12.8897L20.8687 13.0262C20.8031 13.7769 20.706 14.5224 20.5603 15.071C20.4413 15.5172 20.207 15.9243 19.8811 16.2514C19.5551 16.5785 19.1489 16.8142 18.7031 16.9348C17.1806 17.3443 11.3938 17.3732 10.5919 17.3745H10.4055C9.99994 17.3745 8.32256 17.3666 6.56381 17.3062L6.34069 17.2984L6.2265 17.2931L6.00206 17.2839L5.77762 17.2747C4.32075 17.2104 2.93344 17.1067 2.29425 16.9335C1.84864 16.813 1.44252 16.5775 1.11658 16.2506C0.790628 15.9238 0.556299 15.517 0.437063 15.071C0.291375 14.5237 0.19425 13.7769 0.128625 13.0262L0.118125 12.8884L0.107625 12.7519C0.04285 11.8625 0.00695607 10.9713 0 10.0796L0 9.91817C0.002625 9.63598 0.013125 8.66079 0.084 7.58454L0.0931875 7.44935L0.097125 7.3811L0.107625 7.2446L0.1365 6.90335L0.149625 6.76685C0.212625 6.08567 0.305812 5.42417 0.438375 4.92673C0.55741 4.48054 0.79165 4.07349 1.11761 3.74637C1.44357 3.41926 1.8498 3.18359 2.29556 3.06298C2.93475 2.89235 4.32206 2.78735 5.77894 2.72173L6.00206 2.71254L6.22781 2.70467L6.34069 2.70073L6.56512 2.69154C7.81424 2.65135 9.06387 2.62903 10.3136 2.6246H10.5669V2.62329ZM8.4 6.83642V13.16L13.8561 9.99954L8.4 6.83642Z" fill="white"/>
</svg>
